<?xml version="1.0" encoding="utf-8" standalone="no"?>
<!DOCTYPE svg PUBLIC "-//W3C//DTD SVG 1.1//EN"
  "http://www.w3.org/Graphics/SVG/1.1/DTD/svg11.dtd">
<svg xmlns:xlink="http://www.w3.org/1999/xlink" width="408.96pt" height="305.998125pt" viewBox="0 0 408.96 305.998125" xmlns="http://www.w3.org/2000/svg" version="1.1">
 <metadata>
  <rdf:RDF xmlns:dc="http://purl.org/dc/elements/1.1/" xmlns:cc="http://creativecommons.org/ns#" xmlns:rdf="http://www.w3.org/1999/02/22-rdf-syntax-ns#">
   <cc:Work>
    <dc:type rdf:resource="http://purl.org/dc/dcmitype/StillImage"/>
    <dc:date>2026-03-30T11:46:49.681260</dc:date>
    <dc:format>image/svg+xml</dc:format>
    <dc:creator>
     <cc:Agent>
      <dc:title>Matplotlib v3.7.0, https://matplotlib.org/</dc:title>
     </cc:Agent>
    </dc:creator>
   </cc:Work>
  </rdf:RDF>
 </metadata>
 <defs>
  <style type="text/css">*{stroke-linejoin: round; stroke-linecap: butt}</style>
 </defs>
 <g id="figure_1">
  <g id="patch_1">
   <path d="M 0 305.998125 
L 408.96 305.998125 
L 408.96 0 
L 0 0 
z
" style="fill: #ffffff"/>
  </g>
  <g id="axes_1">
   <g id="LineCollection_1">
    <path d="M 41.438678 184.1358 
L 87.305162 68.231138 
" clip-path="url(#pfe31af2405)" style="fill: none; stroke: #000000; stroke-width: 0.305399"/>
    <path d="M 41.438678 184.1358 
L 90.566914 212.13971 
" clip-path="url(#pfe31af2405)" style="fill: none; stroke: #000000; stroke-width: 1.708896"/>
    <path d="M 41.438678 184.1358 
L 102.872092 158.343711 
" clip-path="url(#pfe31af2405)" style="fill: none; stroke: #000000; stroke-width: 7.5"/>
    <path d="M 41.438678 184.1358 
L 196.35652 123.305362 
" clip-path="url(#pfe31af2405)" style="fill: none; stroke: #000000; stroke-width: 0.109523"/>
    <path d="M 41.438678 184.1358 
L 143.715284 195.687642 
" clip-path="url(#pfe31af2405)" style="fill: none; stroke: #000000; stroke-width: 0.401268"/>
    <path d="M 41.438678 184.1358 
L 65.717904 142.004642 
" clip-path="url(#pfe31af2405)" style="fill: none; stroke: #000000; stroke-width: 7.5"/>
    <path d="M 41.438678 184.1358 
L 130.69942 166.599537 
" clip-path="url(#pfe31af2405)" style="fill: none; stroke: #000000; stroke-width: 1.734936"/>
    <path d="M 255.357776 52.133184 
L 222.798098 209.61806 
" clip-path="url(#pfe31af2405)" style="fill: none; stroke: #000000; stroke-width: 0.175756"/>
    <path d="M 255.357776 52.133184 
L 235.63502 168.459313 
" clip-path="url(#pfe31af2405)" style="fill: none; stroke: #000000; stroke-width: 0.194041"/>
    <path d="M 255.357776 52.133184 
L 288.091759 65.976092 
" clip-path="url(#pfe31af2405)" style="fill: none; stroke: #000000; stroke-width: 1.571564"/>
    <path d="M 255.357776 52.133184 
L 299.120696 141.994761 
" clip-path="url(#pfe31af2405)" style="fill: none; stroke: #000000; stroke-width: 4.998489"/>
    <path d="M 255.357776 52.133184 
L 196.35652 123.305362 
" clip-path="url(#pfe31af2405)" style="fill: none; stroke: #000000; stroke-width: 7.5"/>
    <path d="M 255.357776 52.133184 
L 204.768898 46.310191 
" clip-path="url(#pfe31af2405)" style="fill: none; stroke: #000000; stroke-width: 0.190574"/>
    <path d="M 367.521322 274.806059 
L 300.910079 223.277036 
" clip-path="url(#pfe31af2405)" style="fill: none; stroke: #000000; stroke-width: 7.5"/>
    <path d="M 367.521322 274.806059 
L 345.531232 210.428842 
" clip-path="url(#pfe31af2405)" style="fill: none; stroke: #000000; stroke-width: 6.593292"/>
    <path d="M 367.521322 274.806059 
L 271.894166 240.002351 
" clip-path="url(#pfe31af2405)" style="fill: none; stroke: #000000; stroke-width: 0.089658"/>
    <path d="M 222.798098 209.61806 
L 87.305162 68.231138 
" clip-path="url(#pfe31af2405)" style="fill: none; stroke: #000000; stroke-width: 0.233015"/>
    <path d="M 222.798098 209.61806 
L 235.63502 168.459313 
" clip-path="url(#pfe31af2405)" style="fill: none; stroke: #000000; stroke-width: 7.5"/>
    <path d="M 222.798098 209.61806 
L 300.910079 223.277036 
" clip-path="url(#pfe31af2405)" style="fill: none; stroke: #000000; stroke-width: 7.5"/>
    <path d="M 222.798098 209.61806 
L 181.679581 180.229107 
" clip-path="url(#pfe31af2405)" style="fill: none; stroke: #000000; stroke-width: 7.259828"/>
    <path d="M 222.798098 209.61806 
L 345.531232 210.428842 
" clip-path="url(#pfe31af2405)" style="fill: none; stroke: #000000; stroke-width: 0.256201"/>
    <path d="M 222.798098 209.61806 
L 196.35652 123.305362 
" clip-path="url(#pfe31af2405)" style="fill: none; stroke: #000000; stroke-width: 1.13595"/>
    <path d="M 222.798098 209.61806 
L 271.894166 240.002351 
" clip-path="url(#pfe31af2405)" style="fill: none; stroke: #000000; stroke-width: 5.664602"/>
    <path d="M 222.798098 209.61806 
L 160.824544 126.527364 
" clip-path="url(#pfe31af2405)" style="fill: none; stroke: #000000; stroke-width: 7.5"/>
    <path d="M 222.798098 209.61806 
L 130.69942 166.599537 
" clip-path="url(#pfe31af2405)" style="fill: none; stroke: #000000; stroke-width: 1.872596"/>
    <path d="M 87.305162 68.231138 
L 90.566914 212.13971 
" clip-path="url(#pfe31af2405)" style="fill: none; stroke: #000000; stroke-width: 0.096547"/>
    <path d="M 87.305162 68.231138 
L 102.872092 158.343711 
" clip-path="url(#pfe31af2405)" style="fill: none; stroke: #000000; stroke-width: 1.700758"/>
    <path d="M 87.305162 68.231138 
L 160.824544 126.527364 
" clip-path="url(#pfe31af2405)" style="fill: none; stroke: #000000; stroke-width: 6.252789"/>
    <path d="M 87.305162 68.231138 
L 65.717904 142.004642 
" clip-path="url(#pfe31af2405)" style="fill: none; stroke: #000000; stroke-width: 7.5"/>
    <path d="M 235.63502 168.459313 
L 288.091759 65.976092 
" clip-path="url(#pfe31af2405)" style="fill: none; stroke: #000000; stroke-width: 1.041281"/>
    <path d="M 235.63502 168.459313 
L 299.120696 141.994761 
" clip-path="url(#pfe31af2405)" style="fill: none; stroke: #000000; stroke-width: 2.779525"/>
    <path d="M 235.63502 168.459313 
L 300.910079 223.277036 
" clip-path="url(#pfe31af2405)" style="fill: none; stroke: #000000; stroke-width: 7.5"/>
    <path d="M 235.63502 168.459313 
L 181.679581 180.229107 
" clip-path="url(#pfe31af2405)" style="fill: none; stroke: #000000; stroke-width: 7.5"/>
    <path d="M 235.63502 168.459313 
L 345.531232 210.428842 
" clip-path="url(#pfe31af2405)" style="fill: none; stroke: #000000; stroke-width: 0.502854"/>
    <path d="M 235.63502 168.459313 
L 196.35652 123.305362 
" clip-path="url(#pfe31af2405)" style="fill: none; stroke: #000000; stroke-width: 3.90174"/>
    <path d="M 235.63502 168.459313 
L 271.894166 240.002351 
" clip-path="url(#pfe31af2405)" style="fill: none; stroke: #000000; stroke-width: 7.5"/>
    <path d="M 235.63502 168.459313 
L 143.715284 195.687642 
" clip-path="url(#pfe31af2405)" style="fill: none; stroke: #000000; stroke-width: 0.217831"/>
    <path d="M 235.63502 168.459313 
L 160.824544 126.527364 
" clip-path="url(#pfe31af2405)" style="fill: none; stroke: #000000; stroke-width: 3.29588"/>
    <path d="M 235.63502 168.459313 
L 204.768898 46.310191 
" clip-path="url(#pfe31af2405)" style="fill: none; stroke: #000000; stroke-width: 3.914127"/>
    <path d="M 235.63502 168.459313 
L 130.69942 166.599537 
" clip-path="url(#pfe31af2405)" style="fill: none; stroke: #000000; stroke-width: 3.101123"/>
    <path d="M 90.566914 212.13971 
L 102.872092 158.343711 
" clip-path="url(#pfe31af2405)" style="fill: none; stroke: #000000; stroke-width: 7.5"/>
    <path d="M 90.566914 212.13971 
L 181.679581 180.229107 
" clip-path="url(#pfe31af2405)" style="fill: none; stroke: #000000; stroke-width: 0.695184"/>
    <path d="M 90.566914 212.13971 
L 196.35652 123.305362 
" clip-path="url(#pfe31af2405)" style="fill: none; stroke: #000000; stroke-width: 0.669389"/>
    <path d="M 90.566914 212.13971 
L 143.715284 195.687642 
" clip-path="url(#pfe31af2405)" style="fill: none; stroke: #000000; stroke-width: 7.5"/>
    <path d="M 90.566914 212.13971 
L 65.717904 142.004642 
" clip-path="url(#pfe31af2405)" style="fill: none; stroke: #000000; stroke-width: 7.112263"/>
    <path d="M 90.566914 212.13971 
L 130.69942 166.599537 
" clip-path="url(#pfe31af2405)" style="fill: none; stroke: #000000; stroke-width: 7.5"/>
    <path d="M 288.091759 65.976092 
L 299.120696 141.994761 
" clip-path="url(#pfe31af2405)" style="fill: none; stroke: #000000; stroke-width: 6.616436"/>
    <path d="M 288.091759 65.976092 
L 181.679581 180.229107 
" clip-path="url(#pfe31af2405)" style="fill: none; stroke: #000000; stroke-width: 0.806719"/>
    <path d="M 288.091759 65.976092 
L 196.35652 123.305362 
" clip-path="url(#pfe31af2405)" style="fill: none; stroke: #000000; stroke-width: 2.958462"/>
    <path d="M 288.091759 65.976092 
L 143.715284 195.687642 
" clip-path="url(#pfe31af2405)" style="fill: none; stroke: #000000; stroke-width: 0.077079"/>
    <path d="M 299.120696 141.994761 
L 300.910079 223.277036 
" clip-path="url(#pfe31af2405)" style="fill: none; stroke: #000000; stroke-width: 7.5"/>
    <path d="M 299.120696 141.994761 
L 345.531232 210.428842 
" clip-path="url(#pfe31af2405)" style="fill: none; stroke: #000000; stroke-width: 7.5"/>
    <path d="M 299.120696 141.994761 
L 196.35652 123.305362 
" clip-path="url(#pfe31af2405)" style="fill: none; stroke: #000000; stroke-width: 2.632374"/>
    <path d="M 299.120696 141.994761 
L 271.894166 240.002351 
" clip-path="url(#pfe31af2405)" style="fill: none; stroke: #000000; stroke-width: 2.2782"/>
    <path d="M 299.120696 141.994761 
L 204.768898 46.310191 
" clip-path="url(#pfe31af2405)" style="fill: none; stroke: #000000; stroke-width: 0.079769"/>
    <path d="M 300.910079 223.277036 
L 345.531232 210.428842 
" clip-path="url(#pfe31af2405)" style="fill: none; stroke: #000000; stroke-width: 7.5"/>
    <path d="M 300.910079 223.277036 
L 271.894166 240.002351 
" clip-path="url(#pfe31af2405)" style="fill: none; stroke: #000000; stroke-width: 7.5"/>
    <path d="M 102.872092 158.343711 
L 181.679581 180.229107 
" clip-path="url(#pfe31af2405)" style="fill: none; stroke: #000000; stroke-width: 1.994875"/>
    <path d="M 102.872092 158.343711 
L 196.35652 123.305362 
" clip-path="url(#pfe31af2405)" style="fill: none; stroke: #000000; stroke-width: 5.722552"/>
    <path d="M 102.872092 158.343711 
L 143.715284 195.687642 
" clip-path="url(#pfe31af2405)" style="fill: none; stroke: #000000; stroke-width: 7.5"/>
    <path d="M 102.872092 158.343711 
L 65.717904 142.004642 
" clip-path="url(#pfe31af2405)" style="fill: none; stroke: #000000; stroke-width: 7.5"/>
    <path d="M 102.872092 158.343711 
L 130.69942 166.599537 
" clip-path="url(#pfe31af2405)" style="fill: none; stroke: #000000; stroke-width: 7.5"/>
    <path d="M 181.679581 180.229107 
L 196.35652 123.305362 
" clip-path="url(#pfe31af2405)" style="fill: none; stroke: #000000; stroke-width: 7.5"/>
    <path d="M 181.679581 180.229107 
L 143.715284 195.687642 
" clip-path="url(#pfe31af2405)" style="fill: none; stroke: #000000; stroke-width: 7.5"/>
    <path d="M 181.679581 180.229107 
L 160.824544 126.527364 
" clip-path="url(#pfe31af2405)" style="fill: none; stroke: #000000; stroke-width: 3.989749"/>
    <path d="M 181.679581 180.229107 
L 204.768898 46.310191 
" clip-path="url(#pfe31af2405)" style="fill: none; stroke: #000000; stroke-width: 1.034597"/>
    <path d="M 181.679581 180.229107 
L 130.69942 166.599537 
" clip-path="url(#pfe31af2405)" style="fill: none; stroke: #000000; stroke-width: 7.5"/>
    <path d="M 345.531232 210.428842 
L 271.894166 240.002351 
" clip-path="url(#pfe31af2405)" style="fill: none; stroke: #000000; stroke-width: 1.497751"/>
    <path d="M 196.35652 123.305362 
L 143.715284 195.687642 
" clip-path="url(#pfe31af2405)" style="fill: none; stroke: #000000; stroke-width: 7.5"/>
    <path d="M 196.35652 123.305362 
L 204.768898 46.310191 
" clip-path="url(#pfe31af2405)" style="fill: none; stroke: #000000; stroke-width: 2.592489"/>
    <path d="M 196.35652 123.305362 
L 130.69942 166.599537 
" clip-path="url(#pfe31af2405)" style="fill: none; stroke: #000000; stroke-width: 2.501843"/>
    <path d="M 271.894166 240.002351 
L 160.824544 126.527364 
" clip-path="url(#pfe31af2405)" style="fill: none; stroke: #000000; stroke-width: 0.176879"/>
    <path d="M 271.894166 240.002351 
L 204.768898 46.310191 
" clip-path="url(#pfe31af2405)" style="fill: none; stroke: #000000; stroke-width: 0.255261"/>
    <path d="M 143.715284 195.687642 
L 204.768898 46.310191 
" clip-path="url(#pfe31af2405)" style="fill: none; stroke: #000000; stroke-width: 1.444092"/>
    <path d="M 143.715284 195.687642 
L 130.69942 166.599537 
" clip-path="url(#pfe31af2405)" style="fill: none; stroke: #000000; stroke-width: 7.5"/>
    <path d="M 160.824544 126.527364 
L 130.69942 166.599537 
" clip-path="url(#pfe31af2405)" style="fill: none; stroke: #000000; stroke-width: 7.5"/>
    <path d="M 65.717904 142.004642 
L 130.69942 166.599537 
" clip-path="url(#pfe31af2405)" style="fill: none; stroke: #000000; stroke-width: 7.5"/>
   </g>
   <g id="PathCollection_1">
    <path d="M 41.438678 191.976761 
C 43.518125 191.976761 45.512683 191.150588 46.983074 189.680196 
C 48.453465 188.209805 49.279638 186.215247 49.279638 184.1358 
C 49.279638 182.056353 48.453465 180.061795 46.983074 178.591404 
C 45.512683 177.121012 43.518125 176.294839 41.438678 176.294839 
C 39.359231 176.294839 37.364672 177.121012 35.894281 178.591404 
C 34.42389 180.061795 33.597717 182.056353 33.597717 184.1358 
C 33.597717 186.215247 34.42389 188.209805 35.894281 189.680196 
C 37.364672 191.150588 39.359231 191.976761 41.438678 191.976761 
z
" clip-path="url(#pfe31af2405)" style="fill: #1f77b4; stroke: #1f77b4"/>
    <path d="M 255.357776 59.228404 
C 257.23945 59.228404 259.044309 58.480807 260.374854 57.150262 
C 261.705398 55.819717 262.452996 54.014858 262.452996 52.133184 
C 262.452996 50.25151 261.705398 48.446651 260.374854 47.116107 
C 259.044309 45.785562 257.23945 45.037965 255.357776 45.037965 
C 253.476102 45.037965 251.671243 45.785562 250.340699 47.116107 
C 249.010154 48.446651 248.262557 50.25151 248.262557 52.133184 
C 248.262557 54.014858 249.010154 55.819717 250.340699 57.150262 
C 251.671243 58.480807 253.476102 59.228404 255.357776 59.228404 
z
" clip-path="url(#pfe31af2405)" style="fill: #aec7e8; stroke: #aec7e8"/>
    <path d="M 367.521322 282.291641 
C 369.506522 282.291641 371.41068 281.502913 372.814428 280.099165 
C 374.218176 278.695417 375.006904 276.791258 375.006904 274.806059 
C 375.006904 272.820859 374.218176 270.916701 372.814428 269.512953 
C 371.41068 268.109205 369.506522 267.320477 367.521322 267.320477 
C 365.536123 267.320477 363.631965 268.109205 362.228217 269.512953 
C 360.824468 270.916701 360.03574 272.820859 360.03574 274.806059 
C 360.03574 276.791258 360.824468 278.695417 362.228217 280.099165 
C 363.631965 281.502913 365.536123 282.291641 367.521322 282.291641 
z
" clip-path="url(#pfe31af2405)" style="fill: #ff7f0e; stroke: #ff7f0e"/>
    <path d="M 222.798098 214.730823 
C 224.154019 214.730823 225.454587 214.19211 226.413367 213.23333 
C 227.372148 212.274549 227.910861 210.973981 227.910861 209.61806 
C 227.910861 208.262139 227.372148 206.961571 226.413367 206.00279 
C 225.454587 205.04401 224.154019 204.505297 222.798098 204.505297 
C 221.442177 204.505297 220.141609 205.04401 219.182828 206.00279 
C 218.224048 206.961571 217.685335 208.262139 217.685335 209.61806 
C 217.685335 210.973981 218.224048 212.274549 219.182828 213.23333 
C 220.141609 214.19211 221.442177 214.730823 222.798098 214.730823 
z
" clip-path="url(#pfe31af2405)" style="fill: #ffbb78; stroke: #ffbb78"/>
    <path d="M 87.305162 76.094431 
C 89.390532 76.094431 91.390771 75.265905 92.86535 73.791326 
C 94.33993 72.316747 95.168456 70.316508 95.168456 68.231138 
C 95.168456 66.145768 94.33993 64.145529 92.86535 62.67095 
C 91.390771 61.196371 89.390532 60.367845 87.305162 60.367845 
C 85.219793 60.367845 83.219553 61.196371 81.744974 62.67095 
C 80.270395 64.145529 79.441869 66.145768 79.441869 68.231138 
C 79.441869 70.316508 80.270395 72.316747 81.744974 73.791326 
C 83.219553 75.265905 85.219793 76.094431 87.305162 76.094431 
z
" clip-path="url(#pfe31af2405)" style="fill: #2ca02c; stroke: #2ca02c"/>
    <path d="M 235.63502 174.568106 
C 237.255091 174.568106 238.809026 173.924445 239.954589 172.778882 
C 241.100152 171.633319 241.743813 170.079384 241.743813 168.459313 
C 241.743813 166.839243 241.100152 165.285308 239.954589 164.139745 
C 238.809026 162.994182 237.255091 162.350521 235.63502 162.350521 
C 234.014949 162.350521 232.461014 162.994182 231.315451 164.139745 
C 230.169888 165.285308 229.526227 166.839243 229.526227 168.459313 
C 229.526227 170.079384 230.169888 171.633319 231.315451 172.778882 
C 232.461014 173.924445 234.014949 174.568106 235.63502 174.568106 
z
" clip-path="url(#pfe31af2405)" style="fill: #98df8a; stroke: #98df8a"/>
    <path d="M 90.566914 218.070095 
C 92.13967 218.070095 93.648223 217.445232 94.76033 216.333125 
C 95.872436 215.221019 96.497299 213.712466 96.497299 212.13971 
C 96.497299 210.566953 95.872436 209.058401 94.76033 207.946294 
C 93.648223 206.834187 92.13967 206.209324 90.566914 206.209324 
C 88.994157 206.209324 87.485605 206.834187 86.373498 207.946294 
C 85.261391 209.058401 84.636528 210.566953 84.636528 212.13971 
C 84.636528 213.712466 85.261391 215.221019 86.373498 216.333125 
C 87.485605 217.445232 88.994157 218.070095 90.566914 218.070095 
z
" clip-path="url(#pfe31af2405)" style="fill: #d62728; stroke: #d62728"/>
    <path d="M 288.091759 73.896576 
C 290.192296 73.896576 292.207083 73.062024 293.692387 71.57672 
C 295.177691 70.091416 296.012244 68.076629 296.012244 65.976092 
C 296.012244 63.875554 295.177691 61.860767 293.692387 60.375463 
C 292.207083 58.890159 290.192296 58.055607 288.091759 58.055607 
C 285.991222 58.055607 283.976434 58.890159 282.49113 60.375463 
C 281.005826 61.860767 280.171274 63.875554 280.171274 65.976092 
C 280.171274 68.076629 281.005826 70.091416 282.49113 71.57672 
C 283.976434 73.062024 285.991222 73.896576 288.091759 73.896576 
z
" clip-path="url(#pfe31af2405)" style="fill: #ff9896; stroke: #ff9896"/>
    <path d="M 299.120696 145.829483 
C 300.137676 145.829483 301.11314 145.425433 301.832254 144.706319 
C 302.551368 143.987205 302.955418 143.011741 302.955418 141.994761 
C 302.955418 140.977781 302.551368 140.002316 301.832254 139.283203 
C 301.11314 138.564089 300.137676 138.160039 299.120696 138.160039 
C 298.103716 138.160039 297.128251 138.564089 296.409138 139.283203 
C 295.690024 140.002316 295.285974 140.977781 295.285974 141.994761 
C 295.285974 143.011741 295.690024 143.987205 296.409138 144.706319 
C 297.128251 145.425433 298.103716 145.829483 299.120696 145.829483 
z
" clip-path="url(#pfe31af2405)" style="fill: #9467bd; stroke: #9467bd"/>
    <path d="M 300.910079 228.686544 
C 302.344698 228.686544 303.720751 228.116564 304.735179 227.102136 
C 305.749607 226.087707 306.319587 224.711654 306.319587 223.277036 
C 306.319587 221.842418 305.749607 220.466365 304.735179 219.451937 
C 303.720751 218.437509 302.344698 217.867529 300.910079 217.867529 
C 299.475461 217.867529 298.099408 218.437509 297.08498 219.451937 
C 296.070552 220.466365 295.500572 221.842418 295.500572 223.277036 
C 295.500572 224.711654 296.070552 226.087707 297.08498 227.102136 
C 298.099408 228.116564 299.475461 228.686544 300.910079 228.686544 
z
" clip-path="url(#pfe31af2405)" style="fill: #c5b0d5; stroke: #c5b0d5"/>
    <path d="M 102.872092 162.099325 
C 103.868092 162.099325 104.823433 161.703609 105.527711 160.999331 
C 106.23199 160.295052 106.627705 159.339711 106.627705 158.343711 
C 106.627705 157.347711 106.23199 156.39237 105.527711 155.688092 
C 104.823433 154.983813 103.868092 154.588098 102.872092 154.588098 
C 101.876091 154.588098 100.920751 154.983813 100.216472 155.688092 
C 99.512193 156.39237 99.116478 157.347711 99.116478 158.343711 
C 99.116478 159.339711 99.512193 160.295052 100.216472 160.999331 
C 100.920751 161.703609 101.876091 162.099325 102.872092 162.099325 
z
" clip-path="url(#pfe31af2405)" style="fill: #8c564b; stroke: #8c564b"/>
    <path d="M 181.679581 186.052979 
C 183.224089 186.052979 184.705547 185.439339 185.79768 184.347206 
C 186.889813 183.255073 187.503453 181.773616 187.503453 180.229107 
C 187.503453 178.684598 186.889813 177.20314 185.79768 176.111007 
C 184.705547 175.018875 183.224089 174.405235 181.679581 174.405235 
C 180.135072 174.405235 178.653614 175.018875 177.561481 176.111007 
C 176.469348 177.20314 175.855708 178.684598 175.855708 180.229107 
C 175.855708 181.773616 176.469348 183.255073 177.561481 184.347206 
C 178.653614 185.439339 180.135072 186.052979 181.679581 186.052979 
z
" clip-path="url(#pfe31af2405)" style="fill: #c49c94; stroke: #c49c94"/>
    <path d="M 345.531232 216.886097 
C 347.243716 216.886097 348.886292 216.20572 350.097201 214.994811 
C 351.30811 213.783901 351.988487 212.141326 351.988487 210.428842 
C 351.988487 208.716358 351.30811 207.073782 350.097201 205.862873 
C 348.886292 204.651964 347.243716 203.971587 345.531232 203.971587 
C 343.818748 203.971587 342.176172 204.651964 340.965263 205.862873 
C 339.754354 207.073782 339.073977 208.716358 339.073977 210.428842 
C 339.073977 212.141326 339.754354 213.783901 340.965263 214.994811 
C 342.176172 216.20572 343.818748 216.886097 345.531232 216.886097 
z
" clip-path="url(#pfe31af2405)" style="fill: #e377c2; stroke: #e377c2"/>
    <path d="M 196.35652 129.497792 
C 197.998771 129.497792 199.573982 128.845319 200.735229 127.684071 
C 201.896477 126.522824 202.54895 124.947613 202.54895 123.305362 
C 202.54895 121.66311 201.896477 120.087899 200.735229 118.926652 
C 199.573982 117.765405 197.998771 117.112931 196.35652 117.112931 
C 194.714268 117.112931 193.139057 117.765405 191.97781 118.926652 
C 190.816563 120.087899 190.164089 121.66311 190.164089 123.305362 
C 190.164089 124.947613 190.816563 126.522824 191.97781 127.684071 
C 193.139057 128.845319 194.714268 129.497792 196.35652 129.497792 
z
" clip-path="url(#pfe31af2405)" style="fill: #f7b6d2; stroke: #f7b6d2"/>
    <path d="M 271.894166 245.736599 
C 273.414907 245.736599 274.873566 245.132402 275.948892 244.057076 
C 277.024217 242.981751 277.628414 241.523091 277.628414 240.002351 
C 277.628414 238.481611 277.024217 237.022952 275.948892 235.947626 
C 274.873566 234.8723 273.414907 234.268104 271.894166 234.268104 
C 270.373426 234.268104 268.914767 234.8723 267.839441 235.947626 
C 266.764116 237.022952 266.159919 238.481611 266.159919 240.002351 
C 266.159919 241.523091 266.764116 242.981751 267.839441 244.057076 
C 268.914767 245.132402 270.373426 245.736599 271.894166 245.736599 
z
" clip-path="url(#pfe31af2405)" style="fill: #7f7f7f; stroke: #7f7f7f"/>
    <path d="M 143.715284 199.667324 
C 144.770708 199.667324 145.783047 199.248 146.529344 198.501702 
C 147.275642 197.755405 147.694966 196.743066 147.694966 195.687642 
C 147.694966 194.632218 147.275642 193.619879 146.529344 192.873582 
C 145.783047 192.127284 144.770708 191.70796 143.715284 191.70796 
C 142.65986 191.70796 141.647521 192.127284 140.901223 192.873582 
C 140.154926 193.619879 139.735601 194.632218 139.735601 195.687642 
C 139.735601 196.743066 140.154926 197.755405 140.901223 198.501702 
C 141.647521 199.248 142.65986 199.667324 143.715284 199.667324 
z
" clip-path="url(#pfe31af2405)" style="fill: #c7c7c7; stroke: #c7c7c7"/>
    <path d="M 160.824544 130.993566 
C 162.008995 130.993566 163.145093 130.522979 163.982626 129.685446 
C 164.820159 128.847913 165.290746 127.711814 165.290746 126.527364 
C 165.290746 125.342913 164.820159 124.206815 163.982626 123.369282 
C 163.145093 122.531749 162.008995 122.061162 160.824544 122.061162 
C 159.640093 122.061162 158.503995 122.531749 157.666462 123.369282 
C 156.828929 124.206815 156.358342 125.342913 156.358342 126.527364 
C 156.358342 127.711814 156.828929 128.847913 157.666462 129.685446 
C 158.503995 130.522979 159.640093 130.993566 160.824544 130.993566 
z
" clip-path="url(#pfe31af2405)" style="fill: #bcbd22; stroke: #bcbd22"/>
    <path d="M 204.768898 54.459888 
C 206.930223 54.459888 209.003316 53.601185 210.531604 52.072897 
C 212.059891 50.54461 212.918595 48.471516 212.918595 46.310191 
C 212.918595 44.148866 212.059891 42.075773 210.531604 40.547485 
C 209.003316 39.019198 206.930223 38.160494 204.768898 38.160494 
C 202.607573 38.160494 200.534479 39.019198 199.006192 40.547485 
C 197.477904 42.075773 196.619201 44.148866 196.619201 46.310191 
C 196.619201 48.471516 197.477904 50.54461 199.006192 52.072897 
C 200.534479 53.601185 202.607573 54.459888 204.768898 54.459888 
z
" clip-path="url(#pfe31af2405)" style="fill: #dbdb8d; stroke: #dbdb8d"/>
    <path d="M 65.717904 144.975005 
C 66.505654 144.975005 67.261245 144.662029 67.818268 144.105006 
C 68.375291 143.547983 68.688267 142.792391 68.688267 142.004642 
C 68.688267 141.216892 68.375291 140.461301 67.818268 139.904278 
C 67.261245 139.347255 66.505654 139.034279 65.717904 139.034279 
C 64.930155 139.034279 64.174563 139.347255 63.61754 139.904278 
C 63.060517 140.461301 62.747541 141.216892 62.747541 142.004642 
C 62.747541 142.792391 63.060517 143.547983 63.61754 144.105006 
C 64.174563 144.662029 64.930155 144.975005 65.717904 144.975005 
z
" clip-path="url(#pfe31af2405)" style="fill: #17becf; stroke: #17becf"/>
    <path d="M 130.69942 171.269781 
C 131.937984 171.269781 133.125985 170.777694 134.001782 169.901898 
C 134.877578 169.026102 135.369664 167.8381 135.369664 166.599537 
C 135.369664 165.360973 134.877578 164.172972 134.001782 163.297175 
C 133.125985 162.421379 131.937984 161.929293 130.69942 161.929293 
C 129.460857 161.929293 128.272855 162.421379 127.397059 163.297175 
C 126.521263 164.172972 126.029176 165.360973 126.029176 166.599537 
C 126.029176 167.8381 126.521263 169.026102 127.397059 169.901898 
C 128.272855 170.777694 129.460857 171.269781 130.69942 171.269781 
z
" clip-path="url(#pfe31af2405)" style="fill: #9edae5; stroke: #9edae5"/>
   </g>
   <g id="matplotlib.axis_1"/>
   <g id="matplotlib.axis_2"/>
   <g id="text_1">
    <!-- 0 -->
    <g transform="translate(37.959771 186.895175) scale(0.1 -0.1)">
     <defs>
      <path id="DejaVuSans-Bold-30" d="M 2944 2338 
Q 2944 3213 2780 3570 
Q 2616 3928 2228 3928 
Q 1841 3928 1675 3570 
Q 1509 3213 1509 2338 
Q 1509 1453 1675 1090 
Q 1841 728 2228 728 
Q 2613 728 2778 1090 
Q 2944 1453 2944 2338 
z
M 4147 2328 
Q 4147 1169 3647 539 
Q 3147 -91 2228 -91 
Q 1306 -91 806 539 
Q 306 1169 306 2328 
Q 306 3491 806 4120 
Q 1306 4750 2228 4750 
Q 3147 4750 3647 4120 
Q 4147 3491 4147 2328 
z
" transform="scale(0.015625)"/>
     </defs>
     <use xlink:href="#DejaVuSans-Bold-30"/>
    </g>
   </g>
   <g id="text_2">
    <!-- 1 -->
    <g transform="translate(251.87887 54.892559) scale(0.1 -0.1)">
     <defs>
      <path id="DejaVuSans-Bold-31" d="M 750 831 
L 1813 831 
L 1813 3847 
L 722 3622 
L 722 4441 
L 1806 4666 
L 2950 4666 
L 2950 831 
L 4013 831 
L 4013 0 
L 750 0 
L 750 831 
z
" transform="scale(0.015625)"/>
     </defs>
     <use xlink:href="#DejaVuSans-Bold-31"/>
    </g>
   </g>
   <g id="text_3">
    <!-- 2 -->
    <g transform="translate(364.042416 277.565434) scale(0.1 -0.1)">
     <defs>
      <path id="DejaVuSans-Bold-32" d="M 1844 884 
L 3897 884 
L 3897 0 
L 506 0 
L 506 884 
L 2209 2388 
Q 2438 2594 2547 2791 
Q 2656 2988 2656 3200 
Q 2656 3528 2436 3728 
Q 2216 3928 1850 3928 
Q 1569 3928 1234 3808 
Q 900 3688 519 3450 
L 519 4475 
Q 925 4609 1322 4679 
Q 1719 4750 2100 4750 
Q 2938 4750 3402 4381 
Q 3866 4013 3866 3353 
Q 3866 2972 3669 2642 
Q 3472 2313 2841 1759 
L 1844 884 
z
" transform="scale(0.015625)"/>
     </defs>
     <use xlink:href="#DejaVuSans-Bold-32"/>
    </g>
   </g>
   <g id="text_4">
    <!-- 3 -->
    <g transform="translate(219.319192 212.377435) scale(0.1 -0.1)">
     <defs>
      <path id="DejaVuSans-Bold-33" d="M 2981 2516 
Q 3453 2394 3698 2092 
Q 3944 1791 3944 1325 
Q 3944 631 3412 270 
Q 2881 -91 1863 -91 
Q 1503 -91 1142 -33 
Q 781 25 428 141 
L 428 1069 
Q 766 900 1098 814 
Q 1431 728 1753 728 
Q 2231 728 2486 893 
Q 2741 1059 2741 1369 
Q 2741 1688 2480 1852 
Q 2219 2016 1709 2016 
L 1228 2016 
L 1228 2791 
L 1734 2791 
Q 2188 2791 2409 2933 
Q 2631 3075 2631 3366 
Q 2631 3634 2415 3781 
Q 2200 3928 1806 3928 
Q 1516 3928 1219 3862 
Q 922 3797 628 3669 
L 628 4550 
Q 984 4650 1334 4700 
Q 1684 4750 2022 4750 
Q 2931 4750 3382 4451 
Q 3834 4153 3834 3553 
Q 3834 3144 3618 2883 
Q 3403 2622 2981 2516 
z
" transform="scale(0.015625)"/>
     </defs>
     <use xlink:href="#DejaVuSans-Bold-33"/>
    </g>
   </g>
   <g id="text_5">
    <!-- 4 -->
    <g transform="translate(83.826256 70.990513) scale(0.1 -0.1)">
     <defs>
      <path id="DejaVuSans-Bold-34" d="M 2356 3675 
L 1038 1722 
L 2356 1722 
L 2356 3675 
z
M 2156 4666 
L 3494 4666 
L 3494 1722 
L 4159 1722 
L 4159 850 
L 3494 850 
L 3494 0 
L 2356 0 
L 2356 850 
L 288 850 
L 288 1881 
L 2156 4666 
z
" transform="scale(0.015625)"/>
     </defs>
     <use xlink:href="#DejaVuSans-Bold-34"/>
    </g>
   </g>
   <g id="text_6">
    <!-- 5 -->
    <g transform="translate(232.156114 171.218688) scale(0.1 -0.1)">
     <defs>
      <path id="DejaVuSans-Bold-35" d="M 678 4666 
L 3669 4666 
L 3669 3781 
L 1638 3781 
L 1638 3059 
Q 1775 3097 1914 3117 
Q 2053 3138 2203 3138 
Q 3056 3138 3531 2711 
Q 4006 2284 4006 1522 
Q 4006 766 3489 337 
Q 2972 -91 2053 -91 
Q 1656 -91 1267 -14 
Q 878 63 494 219 
L 494 1166 
Q 875 947 1217 837 
Q 1559 728 1863 728 
Q 2300 728 2551 942 
Q 2803 1156 2803 1522 
Q 2803 1891 2551 2103 
Q 2300 2316 1863 2316 
Q 1603 2316 1309 2248 
Q 1016 2181 678 2041 
L 678 4666 
z
" transform="scale(0.015625)"/>
     </defs>
     <use xlink:href="#DejaVuSans-Bold-35"/>
    </g>
   </g>
   <g id="text_7">
    <!-- 6 -->
    <g transform="translate(87.088008 214.899085) scale(0.1 -0.1)">
     <defs>
      <path id="DejaVuSans-Bold-36" d="M 2316 2303 
Q 2000 2303 1842 2098 
Q 1684 1894 1684 1484 
Q 1684 1075 1842 870 
Q 2000 666 2316 666 
Q 2634 666 2792 870 
Q 2950 1075 2950 1484 
Q 2950 1894 2792 2098 
Q 2634 2303 2316 2303 
z
M 3803 4544 
L 3803 3681 
Q 3506 3822 3243 3889 
Q 2981 3956 2731 3956 
Q 2194 3956 1894 3657 
Q 1594 3359 1544 2772 
Q 1750 2925 1990 3001 
Q 2231 3078 2516 3078 
Q 3231 3078 3670 2659 
Q 4109 2241 4109 1563 
Q 4109 813 3618 361 
Q 3128 -91 2303 -91 
Q 1394 -91 895 523 
Q 397 1138 397 2266 
Q 397 3422 980 4083 
Q 1563 4744 2578 4744 
Q 2900 4744 3203 4694 
Q 3506 4644 3803 4544 
z
" transform="scale(0.015625)"/>
     </defs>
     <use xlink:href="#DejaVuSans-Bold-36"/>
    </g>
   </g>
   <g id="text_8">
    <!-- 7 -->
    <g transform="translate(284.612853 68.735467) scale(0.1 -0.1)">
     <defs>
      <path id="DejaVuSans-Bold-37" d="M 428 4666 
L 3944 4666 
L 3944 3988 
L 2125 0 
L 953 0 
L 2675 3781 
L 428 3781 
L 428 4666 
z
" transform="scale(0.015625)"/>
     </defs>
     <use xlink:href="#DejaVuSans-Bold-37"/>
    </g>
   </g>
   <g id="text_9">
    <!-- 8 -->
    <g transform="translate(295.64179 144.754136) scale(0.1 -0.1)">
     <defs>
      <path id="DejaVuSans-Bold-38" d="M 2228 2088 
Q 1891 2088 1709 1903 
Q 1528 1719 1528 1375 
Q 1528 1031 1709 848 
Q 1891 666 2228 666 
Q 2563 666 2741 848 
Q 2919 1031 2919 1375 
Q 2919 1722 2741 1905 
Q 2563 2088 2228 2088 
z
M 1350 2484 
Q 925 2613 709 2878 
Q 494 3144 494 3541 
Q 494 4131 934 4440 
Q 1375 4750 2228 4750 
Q 3075 4750 3515 4442 
Q 3956 4134 3956 3541 
Q 3956 3144 3739 2878 
Q 3522 2613 3097 2484 
Q 3572 2353 3814 2058 
Q 4056 1763 4056 1313 
Q 4056 619 3595 264 
Q 3134 -91 2228 -91 
Q 1319 -91 855 264 
Q 391 619 391 1313 
Q 391 1763 633 2058 
Q 875 2353 1350 2484 
z
M 1631 3419 
Q 1631 3141 1786 2991 
Q 1941 2841 2228 2841 
Q 2509 2841 2662 2991 
Q 2816 3141 2816 3419 
Q 2816 3697 2662 3845 
Q 2509 3994 2228 3994 
Q 1941 3994 1786 3844 
Q 1631 3694 1631 3419 
z
" transform="scale(0.015625)"/>
     </defs>
     <use xlink:href="#DejaVuSans-Bold-38"/>
    </g>
   </g>
   <g id="text_10">
    <!-- 9 -->
    <g transform="translate(297.431173 226.036411) scale(0.1 -0.1)">
     <defs>
      <path id="DejaVuSans-Bold-39" d="M 641 103 
L 641 966 
Q 928 831 1190 764 
Q 1453 697 1709 697 
Q 2247 697 2547 995 
Q 2847 1294 2900 1881 
Q 2688 1725 2447 1647 
Q 2206 1569 1925 1569 
Q 1209 1569 770 1986 
Q 331 2403 331 3084 
Q 331 3838 820 4291 
Q 1309 4744 2131 4744 
Q 3044 4744 3544 4128 
Q 4044 3513 4044 2388 
Q 4044 1231 3459 570 
Q 2875 -91 1856 -91 
Q 1528 -91 1228 -42 
Q 928 6 641 103 
z
M 2125 2350 
Q 2441 2350 2600 2554 
Q 2759 2759 2759 3169 
Q 2759 3575 2600 3781 
Q 2441 3988 2125 3988 
Q 1809 3988 1650 3781 
Q 1491 3575 1491 3169 
Q 1491 2759 1650 2554 
Q 1809 2350 2125 2350 
z
" transform="scale(0.015625)"/>
     </defs>
     <use xlink:href="#DejaVuSans-Bold-39"/>
    </g>
   </g>
   <g id="text_11">
    <!-- 10 -->
    <g transform="translate(95.914279 161.103086) scale(0.1 -0.1)">
     <use xlink:href="#DejaVuSans-Bold-31"/>
     <use xlink:href="#DejaVuSans-Bold-30" x="69.580078"/>
    </g>
   </g>
   <g id="text_12">
    <!-- 11 -->
    <g transform="translate(174.721768 182.988482) scale(0.1 -0.1)">
     <use xlink:href="#DejaVuSans-Bold-31"/>
     <use xlink:href="#DejaVuSans-Bold-31" x="69.580078"/>
    </g>
   </g>
   <g id="text_13">
    <!-- 12 -->
    <g transform="translate(338.573419 213.188217) scale(0.1 -0.1)">
     <use xlink:href="#DejaVuSans-Bold-31"/>
     <use xlink:href="#DejaVuSans-Bold-32" x="69.580078"/>
    </g>
   </g>
   <g id="text_14">
    <!-- 13 -->
    <g transform="translate(189.398707 126.064737) scale(0.1 -0.1)">
     <use xlink:href="#DejaVuSans-Bold-31"/>
     <use xlink:href="#DejaVuSans-Bold-33" x="69.580078"/>
    </g>
   </g>
   <g id="text_15">
    <!-- 14 -->
    <g transform="translate(264.936354 242.761726) scale(0.1 -0.1)">
     <use xlink:href="#DejaVuSans-Bold-31"/>
     <use xlink:href="#DejaVuSans-Bold-34" x="69.580078"/>
    </g>
   </g>
   <g id="text_16">
    <!-- 15 -->
    <g transform="translate(136.757471 198.447017) scale(0.1 -0.1)">
     <use xlink:href="#DejaVuSans-Bold-31"/>
     <use xlink:href="#DejaVuSans-Bold-35" x="69.580078"/>
    </g>
   </g>
   <g id="text_17">
    <!-- 16 -->
    <g transform="translate(153.866731 129.286739) scale(0.1 -0.1)">
     <use xlink:href="#DejaVuSans-Bold-31"/>
     <use xlink:href="#DejaVuSans-Bold-36" x="69.580078"/>
    </g>
   </g>
   <g id="text_18">
    <!-- 17 -->
    <g transform="translate(197.811085 49.069566) scale(0.1 -0.1)">
     <use xlink:href="#DejaVuSans-Bold-31"/>
     <use xlink:href="#DejaVuSans-Bold-37" x="69.580078"/>
    </g>
   </g>
   <g id="text_19">
    <!-- 18 -->
    <g transform="translate(58.760092 144.764017) scale(0.1 -0.1)">
     <use xlink:href="#DejaVuSans-Bold-31"/>
     <use xlink:href="#DejaVuSans-Bold-38" x="69.580078"/>
    </g>
   </g>
   <g id="text_20">
    <!-- 19 -->
    <g transform="translate(123.741608 169.358912) scale(0.1 -0.1)">
     <use xlink:href="#DejaVuSans-Bold-31"/>
     <use xlink:href="#DejaVuSans-Bold-39" x="69.580078"/>
    </g>
   </g>
   <g id="text_21">
    <!-- PAGA Graph -->
    <g transform="translate(168.180938 16.318125) scale(0.12 -0.12)">
     <defs>
      <path id="DejaVuSans-50" d="M 1259 4147 
L 1259 2394 
L 2053 2394 
Q 2494 2394 2734 2622 
Q 2975 2850 2975 3272 
Q 2975 3691 2734 3919 
Q 2494 4147 2053 4147 
L 1259 4147 
z
M 628 4666 
L 2053 4666 
Q 2838 4666 3239 4311 
Q 3641 3956 3641 3272 
Q 3641 2581 3239 2228 
Q 2838 1875 2053 1875 
L 1259 1875 
L 1259 0 
L 628 0 
L 628 4666 
z
" transform="scale(0.015625)"/>
      <path id="DejaVuSans-41" d="M 2188 4044 
L 1331 1722 
L 3047 1722 
L 2188 4044 
z
M 1831 4666 
L 2547 4666 
L 4325 0 
L 3669 0 
L 3244 1197 
L 1141 1197 
L 716 0 
L 50 0 
L 1831 4666 
z
" transform="scale(0.015625)"/>
      <path id="DejaVuSans-47" d="M 3809 666 
L 3809 1919 
L 2778 1919 
L 2778 2438 
L 4434 2438 
L 4434 434 
Q 4069 175 3628 42 
Q 3188 -91 2688 -91 
Q 1594 -91 976 548 
Q 359 1188 359 2328 
Q 359 3472 976 4111 
Q 1594 4750 2688 4750 
Q 3144 4750 3555 4637 
Q 3966 4525 4313 4306 
L 4313 3634 
Q 3963 3931 3569 4081 
Q 3175 4231 2741 4231 
Q 1884 4231 1454 3753 
Q 1025 3275 1025 2328 
Q 1025 1384 1454 906 
Q 1884 428 2741 428 
Q 3075 428 3337 486 
Q 3600 544 3809 666 
z
" transform="scale(0.015625)"/>
      <path id="DejaVuSans-20" transform="scale(0.015625)"/>
      <path id="DejaVuSans-72" d="M 2631 2963 
Q 2534 3019 2420 3045 
Q 2306 3072 2169 3072 
Q 1681 3072 1420 2755 
Q 1159 2438 1159 1844 
L 1159 0 
L 581 0 
L 581 3500 
L 1159 3500 
L 1159 2956 
Q 1341 3275 1631 3429 
Q 1922 3584 2338 3584 
Q 2397 3584 2469 3576 
Q 2541 3569 2628 3553 
L 2631 2963 
z
" transform="scale(0.015625)"/>
      <path id="DejaVuSans-61" d="M 2194 1759 
Q 1497 1759 1228 1600 
Q 959 1441 959 1056 
Q 959 750 1161 570 
Q 1363 391 1709 391 
Q 2188 391 2477 730 
Q 2766 1069 2766 1631 
L 2766 1759 
L 2194 1759 
z
M 3341 1997 
L 3341 0 
L 2766 0 
L 2766 531 
Q 2569 213 2275 61 
Q 1981 -91 1556 -91 
Q 1019 -91 701 211 
Q 384 513 384 1019 
Q 384 1609 779 1909 
Q 1175 2209 1959 2209 
L 2766 2209 
L 2766 2266 
Q 2766 2663 2505 2880 
Q 2244 3097 1772 3097 
Q 1472 3097 1187 3025 
Q 903 2953 641 2809 
L 641 3341 
Q 956 3463 1253 3523 
Q 1550 3584 1831 3584 
Q 2591 3584 2966 3190 
Q 3341 2797 3341 1997 
z
" transform="scale(0.015625)"/>
      <path id="DejaVuSans-70" d="M 1159 525 
L 1159 -1331 
L 581 -1331 
L 581 3500 
L 1159 3500 
L 1159 2969 
Q 1341 3281 1617 3432 
Q 1894 3584 2278 3584 
Q 2916 3584 3314 3078 
Q 3713 2572 3713 1747 
Q 3713 922 3314 415 
Q 2916 -91 2278 -91 
Q 1894 -91 1617 61 
Q 1341 213 1159 525 
z
M 3116 1747 
Q 3116 2381 2855 2742 
Q 2594 3103 2138 3103 
Q 1681 3103 1420 2742 
Q 1159 2381 1159 1747 
Q 1159 1113 1420 752 
Q 1681 391 2138 391 
Q 2594 391 2855 752 
Q 3116 1113 3116 1747 
z
" transform="scale(0.015625)"/>
      <path id="DejaVuSans-68" d="M 3513 2113 
L 3513 0 
L 2938 0 
L 2938 2094 
Q 2938 2591 2744 2837 
Q 2550 3084 2163 3084 
Q 1697 3084 1428 2787 
Q 1159 2491 1159 1978 
L 1159 0 
L 581 0 
L 581 4863 
L 1159 4863 
L 1159 2956 
Q 1366 3272 1645 3428 
Q 1925 3584 2291 3584 
Q 2894 3584 3203 3211 
Q 3513 2838 3513 2113 
z
" transform="scale(0.015625)"/>
     </defs>
     <use xlink:href="#DejaVuSans-50"/>
     <use xlink:href="#DejaVuSans-41" x="53.927734"/>
     <use xlink:href="#DejaVuSans-47" x="120.585938"/>
     <use xlink:href="#DejaVuSans-41" x="198.076172"/>
     <use xlink:href="#DejaVuSans-20" x="266.484375"/>
     <use xlink:href="#DejaVuSans-47" x="298.271484"/>
     <use xlink:href="#DejaVuSans-72" x="375.761719"/>
     <use xlink:href="#DejaVuSans-61" x="416.875"/>
     <use xlink:href="#DejaVuSans-70" x="478.154297"/>
     <use xlink:href="#DejaVuSans-68" x="541.630859"/>
    </g>
   </g>
  </g>
 </g>
 <defs>
  <clipPath id="pfe31af2405">
   <rect x="7.2" y="22.318125" width="394.56" height="276.48"/>
  </clipPath>
 </defs>
</svg>
