<?xml version="1.0" encoding="utf-8" standalone="no"?>
<!DOCTYPE svg PUBLIC "-//W3C//DTD SVG 1.1//EN"
  "http://www.w3.org/Graphics/SVG/1.1/DTD/svg11.dtd">
<svg xmlns:xlink="http://www.w3.org/1999/xlink" width="408.96pt" height="305.998125pt" viewBox="0 0 408.96 305.998125" xmlns="http://www.w3.org/2000/svg" version="1.1">
 <metadata>
  <rdf:RDF xmlns:dc="http://purl.org/dc/elements/1.1/" xmlns:cc="http://creativecommons.org/ns#" xmlns:rdf="http://www.w3.org/1999/02/22-rdf-syntax-ns#">
   <cc:Work>
    <dc:type rdf:resource="http://purl.org/dc/dcmitype/StillImage"/>
    <dc:date>2026-03-29T22:19:12.940770</dc:date>
    <dc:format>image/svg+xml</dc:format>
    <dc:creator>
     <cc:Agent>
      <dc:title>Matplotlib v3.7.0, https://matplotlib.org/</dc:title>
     </cc:Agent>
    </dc:creator>
   </cc:Work>
  </rdf:RDF>
 </metadata>
 <defs>
  <style type="text/css">*{stroke-linejoin: round; stroke-linecap: butt}</style>
 </defs>
 <g id="figure_1">
  <g id="patch_1">
   <path d="M 0 305.998125 
L 408.96 305.998125 
L 408.96 0 
L 0 0 
z
" style="fill: #ffffff"/>
  </g>
  <g id="axes_1">
   <g id="LineCollection_1">
    <path d="M 332.938 138.706024 
L 367.521322 261.847516 
" clip-path="url(#p61b13b4233)" style="fill: none; stroke: #000000; stroke-width: 5.917098"/>
    <path d="M 332.938 138.706024 
L 288.389559 46.310191 
" clip-path="url(#p61b13b4233)" style="fill: none; stroke: #000000; stroke-width: 2.77451"/>
    <path d="M 332.938 138.706024 
L 211.231413 138.390579 
" clip-path="url(#p61b13b4233)" style="fill: none; stroke: #000000; stroke-width: 0.305218"/>
    <path d="M 41.438678 274.806059 
L 116.937851 188.015157 
" clip-path="url(#p61b13b4233)" style="fill: none; stroke: #000000; stroke-width: 0.089362"/>
    <path d="M 41.438678 274.806059 
L 76.259853 229.480612 
" clip-path="url(#p61b13b4233)" style="fill: none; stroke: #000000; stroke-width: 7.5"/>
    <path d="M 41.438678 274.806059 
L 211.231413 138.390579 
" clip-path="url(#p61b13b4233)" style="fill: none; stroke: #000000; stroke-width: 0.111709"/>
    <path d="M 116.937851 188.015157 
L 76.259853 229.480612 
" clip-path="url(#p61b13b4233)" style="fill: none; stroke: #000000; stroke-width: 7.5"/>
    <path d="M 116.937851 188.015157 
L 211.231413 138.390579 
" clip-path="url(#p61b13b4233)" style="fill: none; stroke: #000000; stroke-width: 1.135101"/>
    <path d="M 367.521322 261.847516 
L 288.389559 46.310191 
" clip-path="url(#p61b13b4233)" style="fill: none; stroke: #000000; stroke-width: 0.451553"/>
    <path d="M 367.521322 261.847516 
L 211.231413 138.390579 
" clip-path="url(#p61b13b4233)" style="fill: none; stroke: #000000; stroke-width: 0.119664"/>
    <path d="M 288.389559 46.310191 
L 211.231413 138.390579 
" clip-path="url(#p61b13b4233)" style="fill: none; stroke: #000000; stroke-width: 1.122554"/>
   </g>
   <g id="PathCollection_1">
    <path d="M 332.938 143.569994 
C 334.22794 143.569994 335.465221 143.057495 336.377346 142.14537 
C 337.289472 141.233245 337.80197 139.995964 337.80197 138.706024 
C 337.80197 137.416084 337.289472 136.178802 336.377346 135.266677 
C 335.465221 134.354552 334.22794 133.842053 332.938 133.842053 
C 331.64806 133.842053 330.410779 134.354552 329.498653 135.266677 
C 328.586528 136.178802 328.074029 137.416084 328.074029 138.706024 
C 328.074029 139.995964 328.586528 141.233245 329.498653 142.14537 
C 330.410779 143.057495 331.64806 143.569994 332.938 143.569994 
z
" clip-path="url(#p61b13b4233)" style="fill: #1f77b4; stroke: #1f77b4"/>
    <path d="M 41.438678 281.299418 
C 43.160737 281.299418 44.812496 280.615237 46.030176 279.397557 
C 47.247856 278.179878 47.932037 276.528118 47.932037 274.806059 
C 47.932037 273.084 47.247856 271.43224 46.030176 270.21456 
C 44.812496 268.996881 43.160737 268.3127 41.438678 268.3127 
C 39.716619 268.3127 38.064859 268.996881 36.847179 270.21456 
C 35.6295 271.43224 34.945318 273.084 34.945318 274.806059 
C 34.945318 276.528118 35.6295 278.179878 36.847179 279.397557 
C 38.064859 280.615237 39.716619 281.299418 41.438678 281.299418 
z
" clip-path="url(#p61b13b4233)" style="fill: #ff7f0e; stroke: #ff7f0e"/>
    <path d="M 116.937851 194.30316 
C 118.605449 194.30316 120.20497 193.640616 121.38414 192.461446 
C 122.56331 191.282277 123.225853 189.682755 123.225853 188.015157 
C 123.225853 186.34756 122.56331 184.748038 121.38414 183.568868 
C 120.20497 182.389699 118.605449 181.727155 116.937851 181.727155 
C 115.270253 181.727155 113.670732 182.389699 112.491562 183.568868 
C 111.312392 184.748038 110.649849 186.34756 110.649849 188.015157 
C 110.649849 189.682755 111.312392 191.282277 112.491562 192.461446 
C 113.670732 193.640616 115.270253 194.30316 116.937851 194.30316 
z
" clip-path="url(#p61b13b4233)" style="fill: #2ca02c; stroke: #2ca02c"/>
    <path d="M 367.521322 267.469988 
C 369.012419 267.469988 370.442645 266.877569 371.49701 265.823204 
C 372.551375 264.768839 373.143794 263.338613 373.143794 261.847516 
C 373.143794 260.356419 372.551375 258.926193 371.49701 257.871828 
C 370.442645 256.817463 369.012419 256.225044 367.521322 256.225044 
C 366.030225 256.225044 364.599999 256.817463 363.545634 257.871828 
C 362.49127 258.926193 361.898851 260.356419 361.898851 261.847516 
C 361.898851 263.338613 362.49127 264.768839 363.545634 265.823204 
C 364.599999 266.877569 366.030225 267.469988 367.521322 267.469988 
z
" clip-path="url(#p61b13b4233)" style="fill: #d62728; stroke: #d62728"/>
    <path d="M 76.259853 233.408523 
C 77.301547 233.408523 78.300716 232.994653 79.037305 232.258064 
C 79.773894 231.521475 80.187763 230.522306 80.187763 229.480612 
C 80.187763 228.438918 79.773894 227.439749 79.037305 226.70316 
C 78.300716 225.966572 77.301547 225.552702 76.259853 225.552702 
C 75.218159 225.552702 74.21899 225.966572 73.482401 226.70316 
C 72.745812 227.439749 72.331943 228.438918 72.331943 229.480612 
C 72.331943 230.522306 72.745812 231.521475 73.482401 232.258064 
C 74.21899 232.994653 75.218159 233.408523 76.259853 233.408523 
z
" clip-path="url(#p61b13b4233)" style="fill: #9467bd; stroke: #9467bd"/>
    <path d="M 288.389559 52.764027 
C 290.101136 52.764027 291.742842 52.08401 292.95311 50.873742 
C 294.163378 49.663474 294.843395 48.021768 294.843395 46.310191 
C 294.843395 44.598614 294.163378 42.956908 292.95311 41.74664 
C 291.742842 40.536372 290.101136 39.856355 288.389559 39.856355 
C 286.677982 39.856355 285.036276 40.536372 283.826008 41.74664 
C 282.61574 42.956908 281.935723 44.598614 281.935723 46.310191 
C 281.935723 48.021768 282.61574 49.663474 283.826008 50.873742 
C 285.036276 52.08401 286.677982 52.764027 288.389559 52.764027 
z
" clip-path="url(#p61b13b4233)" style="fill: #8c564b; stroke: #8c564b"/>
    <path d="M 211.231413 145.481608 
C 213.111975 145.481608 214.915768 144.734452 216.245527 143.404694 
C 217.575286 142.074935 218.322441 140.271142 218.322441 138.390579 
C 218.322441 136.510016 217.575286 134.706223 216.245527 133.376464 
C 214.915768 132.046706 213.111975 131.29955 211.231413 131.29955 
C 209.35085 131.29955 207.547057 132.046706 206.217298 133.376464 
C 204.887539 134.706223 204.140384 136.510016 204.140384 138.390579 
C 204.140384 140.271142 204.887539 142.074935 206.217298 143.404694 
C 207.547057 144.734452 209.35085 145.481608 211.231413 145.481608 
z
" clip-path="url(#p61b13b4233)" style="fill: #e377c2; stroke: #e377c2"/>
   </g>
   <g id="matplotlib.axis_1"/>
   <g id="matplotlib.axis_2"/>
   <g id="text_1">
    <!-- 0 -->
    <g transform="translate(329.459094 141.465399) scale(0.1 -0.1)">
     <defs>
      <path id="DejaVuSans-Bold-30" d="M 2944 2338 
Q 2944 3213 2780 3570 
Q 2616 3928 2228 3928 
Q 1841 3928 1675 3570 
Q 1509 3213 1509 2338 
Q 1509 1453 1675 1090 
Q 1841 728 2228 728 
Q 2613 728 2778 1090 
Q 2944 1453 2944 2338 
z
M 4147 2328 
Q 4147 1169 3647 539 
Q 3147 -91 2228 -91 
Q 1306 -91 806 539 
Q 306 1169 306 2328 
Q 306 3491 806 4120 
Q 1306 4750 2228 4750 
Q 3147 4750 3647 4120 
Q 4147 3491 4147 2328 
z
" transform="scale(0.015625)"/>
     </defs>
     <use xlink:href="#DejaVuSans-Bold-30"/>
    </g>
   </g>
   <g id="text_2">
    <!-- 1 -->
    <g transform="translate(37.959771 277.565434) scale(0.1 -0.1)">
     <defs>
      <path id="DejaVuSans-Bold-31" d="M 750 831 
L 1813 831 
L 1813 3847 
L 722 3622 
L 722 4441 
L 1806 4666 
L 2950 4666 
L 2950 831 
L 4013 831 
L 4013 0 
L 750 0 
L 750 831 
z
" transform="scale(0.015625)"/>
     </defs>
     <use xlink:href="#DejaVuSans-Bold-31"/>
    </g>
   </g>
   <g id="text_3">
    <!-- 2 -->
    <g transform="translate(113.458945 190.774532) scale(0.1 -0.1)">
     <defs>
      <path id="DejaVuSans-Bold-32" d="M 1844 884 
L 3897 884 
L 3897 0 
L 506 0 
L 506 884 
L 2209 2388 
Q 2438 2594 2547 2791 
Q 2656 2988 2656 3200 
Q 2656 3528 2436 3728 
Q 2216 3928 1850 3928 
Q 1569 3928 1234 3808 
Q 900 3688 519 3450 
L 519 4475 
Q 925 4609 1322 4679 
Q 1719 4750 2100 4750 
Q 2938 4750 3402 4381 
Q 3866 4013 3866 3353 
Q 3866 2972 3669 2642 
Q 3472 2313 2841 1759 
L 1844 884 
z
" transform="scale(0.015625)"/>
     </defs>
     <use xlink:href="#DejaVuSans-Bold-32"/>
    </g>
   </g>
   <g id="text_4">
    <!-- 3 -->
    <g transform="translate(364.042416 264.606891) scale(0.1 -0.1)">
     <defs>
      <path id="DejaVuSans-Bold-33" d="M 2981 2516 
Q 3453 2394 3698 2092 
Q 3944 1791 3944 1325 
Q 3944 631 3412 270 
Q 2881 -91 1863 -91 
Q 1503 -91 1142 -33 
Q 781 25 428 141 
L 428 1069 
Q 766 900 1098 814 
Q 1431 728 1753 728 
Q 2231 728 2486 893 
Q 2741 1059 2741 1369 
Q 2741 1688 2480 1852 
Q 2219 2016 1709 2016 
L 1228 2016 
L 1228 2791 
L 1734 2791 
Q 2188 2791 2409 2933 
Q 2631 3075 2631 3366 
Q 2631 3634 2415 3781 
Q 2200 3928 1806 3928 
Q 1516 3928 1219 3862 
Q 922 3797 628 3669 
L 628 4550 
Q 984 4650 1334 4700 
Q 1684 4750 2022 4750 
Q 2931 4750 3382 4451 
Q 3834 4153 3834 3553 
Q 3834 3144 3618 2883 
Q 3403 2622 2981 2516 
z
" transform="scale(0.015625)"/>
     </defs>
     <use xlink:href="#DejaVuSans-Bold-33"/>
    </g>
   </g>
   <g id="text_5">
    <!-- 4 -->
    <g transform="translate(72.780947 232.239987) scale(0.1 -0.1)">
     <defs>
      <path id="DejaVuSans-Bold-34" d="M 2356 3675 
L 1038 1722 
L 2356 1722 
L 2356 3675 
z
M 2156 4666 
L 3494 4666 
L 3494 1722 
L 4159 1722 
L 4159 850 
L 3494 850 
L 3494 0 
L 2356 0 
L 2356 850 
L 288 850 
L 288 1881 
L 2156 4666 
z
" transform="scale(0.015625)"/>
     </defs>
     <use xlink:href="#DejaVuSans-Bold-34"/>
    </g>
   </g>
   <g id="text_6">
    <!-- 5 -->
    <g transform="translate(284.910653 49.069566) scale(0.1 -0.1)">
     <defs>
      <path id="DejaVuSans-Bold-35" d="M 678 4666 
L 3669 4666 
L 3669 3781 
L 1638 3781 
L 1638 3059 
Q 1775 3097 1914 3117 
Q 2053 3138 2203 3138 
Q 3056 3138 3531 2711 
Q 4006 2284 4006 1522 
Q 4006 766 3489 337 
Q 2972 -91 2053 -91 
Q 1656 -91 1267 -14 
Q 878 63 494 219 
L 494 1166 
Q 875 947 1217 837 
Q 1559 728 1863 728 
Q 2300 728 2551 942 
Q 2803 1156 2803 1522 
Q 2803 1891 2551 2103 
Q 2300 2316 1863 2316 
Q 1603 2316 1309 2248 
Q 1016 2181 678 2041 
L 678 4666 
z
" transform="scale(0.015625)"/>
     </defs>
     <use xlink:href="#DejaVuSans-Bold-35"/>
    </g>
   </g>
   <g id="text_7">
    <!-- 6 -->
    <g transform="translate(207.752506 141.149954) scale(0.1 -0.1)">
     <defs>
      <path id="DejaVuSans-Bold-36" d="M 2316 2303 
Q 2000 2303 1842 2098 
Q 1684 1894 1684 1484 
Q 1684 1075 1842 870 
Q 2000 666 2316 666 
Q 2634 666 2792 870 
Q 2950 1075 2950 1484 
Q 2950 1894 2792 2098 
Q 2634 2303 2316 2303 
z
M 3803 4544 
L 3803 3681 
Q 3506 3822 3243 3889 
Q 2981 3956 2731 3956 
Q 2194 3956 1894 3657 
Q 1594 3359 1544 2772 
Q 1750 2925 1990 3001 
Q 2231 3078 2516 3078 
Q 3231 3078 3670 2659 
Q 4109 2241 4109 1563 
Q 4109 813 3618 361 
Q 3128 -91 2303 -91 
Q 1394 -91 895 523 
Q 397 1138 397 2266 
Q 397 3422 980 4083 
Q 1563 4744 2578 4744 
Q 2900 4744 3203 4694 
Q 3506 4644 3803 4544 
z
" transform="scale(0.015625)"/>
     </defs>
     <use xlink:href="#DejaVuSans-Bold-36"/>
    </g>
   </g>
   <g id="text_8">
    <!-- PAGA Graph - 151508 -->
    <g transform="translate(139.2975 16.318125) scale(0.12 -0.12)">
     <defs>
      <path id="DejaVuSans-50" d="M 1259 4147 
L 1259 2394 
L 2053 2394 
Q 2494 2394 2734 2622 
Q 2975 2850 2975 3272 
Q 2975 3691 2734 3919 
Q 2494 4147 2053 4147 
L 1259 4147 
z
M 628 4666 
L 2053 4666 
Q 2838 4666 3239 4311 
Q 3641 3956 3641 3272 
Q 3641 2581 3239 2228 
Q 2838 1875 2053 1875 
L 1259 1875 
L 1259 0 
L 628 0 
L 628 4666 
z
" transform="scale(0.015625)"/>
      <path id="DejaVuSans-41" d="M 2188 4044 
L 1331 1722 
L 3047 1722 
L 2188 4044 
z
M 1831 4666 
L 2547 4666 
L 4325 0 
L 3669 0 
L 3244 1197 
L 1141 1197 
L 716 0 
L 50 0 
L 1831 4666 
z
" transform="scale(0.015625)"/>
      <path id="DejaVuSans-47" d="M 3809 666 
L 3809 1919 
L 2778 1919 
L 2778 2438 
L 4434 2438 
L 4434 434 
Q 4069 175 3628 42 
Q 3188 -91 2688 -91 
Q 1594 -91 976 548 
Q 359 1188 359 2328 
Q 359 3472 976 4111 
Q 1594 4750 2688 4750 
Q 3144 4750 3555 4637 
Q 3966 4525 4313 4306 
L 4313 3634 
Q 3963 3931 3569 4081 
Q 3175 4231 2741 4231 
Q 1884 4231 1454 3753 
Q 1025 3275 1025 2328 
Q 1025 1384 1454 906 
Q 1884 428 2741 428 
Q 3075 428 3337 486 
Q 3600 544 3809 666 
z
" transform="scale(0.015625)"/>
      <path id="DejaVuSans-20" transform="scale(0.015625)"/>
      <path id="DejaVuSans-72" d="M 2631 2963 
Q 2534 3019 2420 3045 
Q 2306 3072 2169 3072 
Q 1681 3072 1420 2755 
Q 1159 2438 1159 1844 
L 1159 0 
L 581 0 
L 581 3500 
L 1159 3500 
L 1159 2956 
Q 1341 3275 1631 3429 
Q 1922 3584 2338 3584 
Q 2397 3584 2469 3576 
Q 2541 3569 2628 3553 
L 2631 2963 
z
" transform="scale(0.015625)"/>
      <path id="DejaVuSans-61" d="M 2194 1759 
Q 1497 1759 1228 1600 
Q 959 1441 959 1056 
Q 959 750 1161 570 
Q 1363 391 1709 391 
Q 2188 391 2477 730 
Q 2766 1069 2766 1631 
L 2766 1759 
L 2194 1759 
z
M 3341 1997 
L 3341 0 
L 2766 0 
L 2766 531 
Q 2569 213 2275 61 
Q 1981 -91 1556 -91 
Q 1019 -91 701 211 
Q 384 513 384 1019 
Q 384 1609 779 1909 
Q 1175 2209 1959 2209 
L 2766 2209 
L 2766 2266 
Q 2766 2663 2505 2880 
Q 2244 3097 1772 3097 
Q 1472 3097 1187 3025 
Q 903 2953 641 2809 
L 641 3341 
Q 956 3463 1253 3523 
Q 1550 3584 1831 3584 
Q 2591 3584 2966 3190 
Q 3341 2797 3341 1997 
z
" transform="scale(0.015625)"/>
      <path id="DejaVuSans-70" d="M 1159 525 
L 1159 -1331 
L 581 -1331 
L 581 3500 
L 1159 3500 
L 1159 2969 
Q 1341 3281 1617 3432 
Q 1894 3584 2278 3584 
Q 2916 3584 3314 3078 
Q 3713 2572 3713 1747 
Q 3713 922 3314 415 
Q 2916 -91 2278 -91 
Q 1894 -91 1617 61 
Q 1341 213 1159 525 
z
M 3116 1747 
Q 3116 2381 2855 2742 
Q 2594 3103 2138 3103 
Q 1681 3103 1420 2742 
Q 1159 2381 1159 1747 
Q 1159 1113 1420 752 
Q 1681 391 2138 391 
Q 2594 391 2855 752 
Q 3116 1113 3116 1747 
z
" transform="scale(0.015625)"/>
      <path id="DejaVuSans-68" d="M 3513 2113 
L 3513 0 
L 2938 0 
L 2938 2094 
Q 2938 2591 2744 2837 
Q 2550 3084 2163 3084 
Q 1697 3084 1428 2787 
Q 1159 2491 1159 1978 
L 1159 0 
L 581 0 
L 581 4863 
L 1159 4863 
L 1159 2956 
Q 1366 3272 1645 3428 
Q 1925 3584 2291 3584 
Q 2894 3584 3203 3211 
Q 3513 2838 3513 2113 
z
" transform="scale(0.015625)"/>
      <path id="DejaVuSans-2d" d="M 313 2009 
L 1997 2009 
L 1997 1497 
L 313 1497 
L 313 2009 
z
" transform="scale(0.015625)"/>
      <path id="DejaVuSans-31" d="M 794 531 
L 1825 531 
L 1825 4091 
L 703 3866 
L 703 4441 
L 1819 4666 
L 2450 4666 
L 2450 531 
L 3481 531 
L 3481 0 
L 794 0 
L 794 531 
z
" transform="scale(0.015625)"/>
      <path id="DejaVuSans-35" d="M 691 4666 
L 3169 4666 
L 3169 4134 
L 1269 4134 
L 1269 2991 
Q 1406 3038 1543 3061 
Q 1681 3084 1819 3084 
Q 2600 3084 3056 2656 
Q 3513 2228 3513 1497 
Q 3513 744 3044 326 
Q 2575 -91 1722 -91 
Q 1428 -91 1123 -41 
Q 819 9 494 109 
L 494 744 
Q 775 591 1075 516 
Q 1375 441 1709 441 
Q 2250 441 2565 725 
Q 2881 1009 2881 1497 
Q 2881 1984 2565 2268 
Q 2250 2553 1709 2553 
Q 1456 2553 1204 2497 
Q 953 2441 691 2322 
L 691 4666 
z
" transform="scale(0.015625)"/>
      <path id="DejaVuSans-30" d="M 2034 4250 
Q 1547 4250 1301 3770 
Q 1056 3291 1056 2328 
Q 1056 1369 1301 889 
Q 1547 409 2034 409 
Q 2525 409 2770 889 
Q 3016 1369 3016 2328 
Q 3016 3291 2770 3770 
Q 2525 4250 2034 4250 
z
M 2034 4750 
Q 2819 4750 3233 4129 
Q 3647 3509 3647 2328 
Q 3647 1150 3233 529 
Q 2819 -91 2034 -91 
Q 1250 -91 836 529 
Q 422 1150 422 2328 
Q 422 3509 836 4129 
Q 1250 4750 2034 4750 
z
" transform="scale(0.015625)"/>
      <path id="DejaVuSans-38" d="M 2034 2216 
Q 1584 2216 1326 1975 
Q 1069 1734 1069 1313 
Q 1069 891 1326 650 
Q 1584 409 2034 409 
Q 2484 409 2743 651 
Q 3003 894 3003 1313 
Q 3003 1734 2745 1975 
Q 2488 2216 2034 2216 
z
M 1403 2484 
Q 997 2584 770 2862 
Q 544 3141 544 3541 
Q 544 4100 942 4425 
Q 1341 4750 2034 4750 
Q 2731 4750 3128 4425 
Q 3525 4100 3525 3541 
Q 3525 3141 3298 2862 
Q 3072 2584 2669 2484 
Q 3125 2378 3379 2068 
Q 3634 1759 3634 1313 
Q 3634 634 3220 271 
Q 2806 -91 2034 -91 
Q 1263 -91 848 271 
Q 434 634 434 1313 
Q 434 1759 690 2068 
Q 947 2378 1403 2484 
z
M 1172 3481 
Q 1172 3119 1398 2916 
Q 1625 2713 2034 2713 
Q 2441 2713 2670 2916 
Q 2900 3119 2900 3481 
Q 2900 3844 2670 4047 
Q 2441 4250 2034 4250 
Q 1625 4250 1398 4047 
Q 1172 3844 1172 3481 
z
" transform="scale(0.015625)"/>
     </defs>
     <use xlink:href="#DejaVuSans-50"/>
     <use xlink:href="#DejaVuSans-41" x="53.927734"/>
     <use xlink:href="#DejaVuSans-47" x="120.585938"/>
     <use xlink:href="#DejaVuSans-41" x="198.076172"/>
     <use xlink:href="#DejaVuSans-20" x="266.484375"/>
     <use xlink:href="#DejaVuSans-47" x="298.271484"/>
     <use xlink:href="#DejaVuSans-72" x="375.761719"/>
     <use xlink:href="#DejaVuSans-61" x="416.875"/>
     <use xlink:href="#DejaVuSans-70" x="478.154297"/>
     <use xlink:href="#DejaVuSans-68" x="541.630859"/>
     <use xlink:href="#DejaVuSans-20" x="605.009766"/>
     <use xlink:href="#DejaVuSans-2d" x="636.796875"/>
     <use xlink:href="#DejaVuSans-20" x="672.880859"/>
     <use xlink:href="#DejaVuSans-31" x="704.667969"/>
     <use xlink:href="#DejaVuSans-35" x="768.291016"/>
     <use xlink:href="#DejaVuSans-31" x="831.914062"/>
     <use xlink:href="#DejaVuSans-35" x="895.537109"/>
     <use xlink:href="#DejaVuSans-30" x="959.160156"/>
     <use xlink:href="#DejaVuSans-38" x="1022.783203"/>
    </g>
   </g>
  </g>
 </g>
 <defs>
  <clipPath id="p61b13b4233">
   <rect x="7.2" y="22.318125" width="394.56" height="276.48"/>
  </clipPath>
 </defs>
</svg>
