<?xml version="1.0" encoding="utf-8" standalone="no"?>
<!DOCTYPE svg PUBLIC "-//W3C//DTD SVG 1.1//EN"
  "http://www.w3.org/Graphics/SVG/1.1/DTD/svg11.dtd">
<svg xmlns:xlink="http://www.w3.org/1999/xlink" width="408.96pt" height="305.998125pt" viewBox="0 0 408.96 305.998125" xmlns="http://www.w3.org/2000/svg" version="1.1">
 <metadata>
  <rdf:RDF xmlns:dc="http://purl.org/dc/elements/1.1/" xmlns:cc="http://creativecommons.org/ns#" xmlns:rdf="http://www.w3.org/1999/02/22-rdf-syntax-ns#">
   <cc:Work>
    <dc:type rdf:resource="http://purl.org/dc/dcmitype/StillImage"/>
    <dc:date>2026-03-29T22:13:41.498757</dc:date>
    <dc:format>image/svg+xml</dc:format>
    <dc:creator>
     <cc:Agent>
      <dc:title>Matplotlib v3.7.0, https://matplotlib.org/</dc:title>
     </cc:Agent>
    </dc:creator>
   </cc:Work>
  </rdf:RDF>
 </metadata>
 <defs>
  <style type="text/css">*{stroke-linejoin: round; stroke-linecap: butt}</style>
 </defs>
 <g id="figure_1">
  <g id="patch_1">
   <path d="M 0 305.998125 
L 408.96 305.998125 
L 408.96 0 
L 0 0 
z
" style="fill: #ffffff"/>
  </g>
  <g id="axes_1">
   <g id="LineCollection_1">
    <path d="M 66.989064 152.283897 
L 344.099576 156.043334 
" clip-path="url(#p475aa65cde)" style="fill: none; stroke: #000000; stroke-width: 0.096036"/>
    <path d="M 66.989064 152.283897 
L 41.438678 274.806059 
" clip-path="url(#p475aa65cde)" style="fill: none; stroke: #000000; stroke-width: 0.96549"/>
    <path d="M 66.989064 152.283897 
L 139.826397 82.93182 
" clip-path="url(#p475aa65cde)" style="fill: none; stroke: #000000; stroke-width: 2.912182"/>
    <path d="M 344.099576 156.043334 
L 139.826397 82.93182 
" clip-path="url(#p475aa65cde)" style="fill: none; stroke: #000000; stroke-width: 0.122453"/>
    <path d="M 344.099576 156.043334 
L 367.521322 236.902635 
" clip-path="url(#p475aa65cde)" style="fill: none; stroke: #000000; stroke-width: 3.104051"/>
    <path d="M 344.099576 156.043334 
L 293.140603 78.995277 
" clip-path="url(#p475aa65cde)" style="fill: none; stroke: #000000; stroke-width: 3.291618"/>
    <path d="M 41.438678 274.806059 
L 367.521322 236.902635 
" clip-path="url(#p475aa65cde)" style="fill: none; stroke: #000000; stroke-width: 0.127151"/>
    <path d="M 139.826397 82.93182 
L 293.140603 78.995277 
" clip-path="url(#p475aa65cde)" style="fill: none; stroke: #000000; stroke-width: 0.414927"/>
    <path d="M 139.826397 82.93182 
L 221.530729 46.310191 
" clip-path="url(#p475aa65cde)" style="fill: none; stroke: #000000; stroke-width: 3.970213"/>
    <path d="M 293.140603 78.995277 
L 221.530729 46.310191 
" clip-path="url(#p475aa65cde)" style="fill: none; stroke: #000000; stroke-width: 5.497265"/>
   </g>
   <g id="PathCollection_1">
    <path d="M 66.989064 159.204802 
C 68.824509 159.204802 70.585027 158.475572 71.882882 157.177716 
C 73.180738 155.87986 73.909969 154.119343 73.909969 152.283897 
C 73.909969 150.448452 73.180738 148.687934 71.882882 147.390078 
C 70.585027 146.092222 68.824509 145.362992 66.989064 145.362992 
C 65.153618 145.362992 63.393101 146.092222 62.095245 147.390078 
C 60.797389 148.687934 60.068159 150.448452 60.068159 152.283897 
C 60.068159 154.119343 60.797389 155.87986 62.095245 157.177716 
C 63.393101 158.475572 65.153618 159.204802 66.989064 159.204802 
z
" clip-path="url(#p475aa65cde)" style="fill: #1f77b4; stroke: #1f77b4"/>
    <path d="M 344.099576 162.331336 
C 345.767174 162.331336 347.366696 161.668792 348.545865 160.489623 
C 349.725035 159.310453 350.387579 157.710931 350.387579 156.043334 
C 350.387579 154.375736 349.725035 152.776214 348.545865 151.597045 
C 347.366696 150.417875 345.767174 149.755331 344.099576 149.755331 
C 342.431979 149.755331 340.832457 150.417875 339.653287 151.597045 
C 338.474118 152.776214 337.811574 154.375736 337.811574 156.043334 
C 337.811574 157.710931 338.474118 159.310453 339.653287 160.489623 
C 340.832457 161.668792 342.431979 162.331336 344.099576 162.331336 
z
" clip-path="url(#p475aa65cde)" style="fill: #ff7f0e; stroke: #ff7f0e"/>
    <path d="M 41.438678 282.171218 
C 43.391941 282.171218 45.265466 281.395179 46.646632 280.014013 
C 48.027798 278.632848 48.803837 276.759322 48.803837 274.806059 
C 48.803837 272.852796 48.027798 270.97927 46.646632 269.598105 
C 45.265466 268.216939 43.391941 267.440899 41.438678 267.440899 
C 39.485415 267.440899 37.611889 268.216939 36.230723 269.598105 
C 34.849558 270.97927 34.073518 272.852796 34.073518 274.806059 
C 34.073518 276.759322 34.849558 278.632848 36.230723 280.014013 
C 37.611889 281.395179 39.485415 282.171218 41.438678 282.171218 
z
" clip-path="url(#p475aa65cde)" style="fill: #2ca02c; stroke: #2ca02c"/>
    <path d="M 139.826397 89.896568 
C 141.67347 89.896568 143.44514 89.162718 144.751218 87.856641 
C 146.057295 86.550563 146.791145 84.778893 146.791145 82.93182 
C 146.791145 81.084747 146.057295 79.313077 144.751218 78.006999 
C 143.44514 76.700921 141.67347 75.967072 139.826397 75.967072 
C 137.979324 75.967072 136.207654 76.700921 134.901576 78.006999 
C 133.595498 79.313077 132.861649 81.084747 132.861649 82.93182 
C 132.861649 84.778893 133.595498 86.550563 134.901576 87.856641 
C 136.207654 89.162718 137.979324 89.896568 139.826397 89.896568 
z
" clip-path="url(#p475aa65cde)" style="fill: #d62728; stroke: #d62728"/>
    <path d="M 367.521322 242.185676 
C 368.922401 242.185676 370.266284 241.629021 371.256997 240.638309 
C 372.247709 239.647597 372.804363 238.303714 372.804363 236.902635 
C 372.804363 235.501556 372.247709 234.157673 371.256997 233.166961 
C 370.266284 232.176248 368.922401 231.619594 367.521322 231.619594 
C 366.120243 231.619594 364.77636 232.176248 363.785648 233.166961 
C 362.794936 234.157673 362.238281 235.501556 362.238281 236.902635 
C 362.238281 238.303714 362.794936 239.647597 363.785648 240.638309 
C 364.77636 241.629021 366.120243 242.185676 367.521322 242.185676 
z
" clip-path="url(#p475aa65cde)" style="fill: #9467bd; stroke: #9467bd"/>
    <path d="M 293.140603 84.884831 
C 294.702531 84.884831 296.200697 84.26427 297.305147 83.15982 
C 298.409597 82.055371 299.030157 80.557205 299.030157 78.995277 
C 299.030157 77.433349 298.409597 75.935183 297.305147 74.830733 
C 296.200697 73.726283 294.702531 73.105723 293.140603 73.105723 
C 291.578675 73.105723 290.08051 73.726283 288.97606 74.830733 
C 287.87161 75.935183 287.251049 77.433349 287.251049 78.995277 
C 287.251049 80.557205 287.87161 82.055371 288.97606 83.15982 
C 290.08051 84.26427 291.578675 84.884831 293.140603 84.884831 
z
" clip-path="url(#p475aa65cde)" style="fill: #8c564b; stroke: #8c564b"/>
    <path d="M 221.530729 52.22891 
C 223.100392 52.22891 224.605977 51.605277 225.715896 50.495358 
C 226.825815 49.385438 227.449448 47.879854 227.449448 46.310191 
C 227.449448 44.740528 226.825815 43.234944 225.715896 42.125025 
C 224.605977 41.015105 223.100392 40.391472 221.530729 40.391472 
C 219.961067 40.391472 218.455482 41.015105 217.345563 42.125025 
C 216.235644 43.234944 215.61201 44.740528 215.61201 46.310191 
C 215.61201 47.879854 216.235644 49.385438 217.345563 50.495358 
C 218.455482 51.605277 219.961067 52.22891 221.530729 52.22891 
z
" clip-path="url(#p475aa65cde)" style="fill: #e377c2; stroke: #e377c2"/>
   </g>
   <g id="matplotlib.axis_1"/>
   <g id="matplotlib.axis_2"/>
   <g id="text_1">
    <!-- 0 -->
    <g transform="translate(63.510157 155.043272) scale(0.1 -0.1)">
     <defs>
      <path id="DejaVuSans-Bold-30" d="M 2944 2338 
Q 2944 3213 2780 3570 
Q 2616 3928 2228 3928 
Q 1841 3928 1675 3570 
Q 1509 3213 1509 2338 
Q 1509 1453 1675 1090 
Q 1841 728 2228 728 
Q 2613 728 2778 1090 
Q 2944 1453 2944 2338 
z
M 4147 2328 
Q 4147 1169 3647 539 
Q 3147 -91 2228 -91 
Q 1306 -91 806 539 
Q 306 1169 306 2328 
Q 306 3491 806 4120 
Q 1306 4750 2228 4750 
Q 3147 4750 3647 4120 
Q 4147 3491 4147 2328 
z
" transform="scale(0.015625)"/>
     </defs>
     <use xlink:href="#DejaVuSans-Bold-30"/>
    </g>
   </g>
   <g id="text_2">
    <!-- 1 -->
    <g transform="translate(340.62067 158.802709) scale(0.1 -0.1)">
     <defs>
      <path id="DejaVuSans-Bold-31" d="M 750 831 
L 1813 831 
L 1813 3847 
L 722 3622 
L 722 4441 
L 1806 4666 
L 2950 4666 
L 2950 831 
L 4013 831 
L 4013 0 
L 750 0 
L 750 831 
z
" transform="scale(0.015625)"/>
     </defs>
     <use xlink:href="#DejaVuSans-Bold-31"/>
    </g>
   </g>
   <g id="text_3">
    <!-- 2 -->
    <g transform="translate(37.959771 277.565434) scale(0.1 -0.1)">
     <defs>
      <path id="DejaVuSans-Bold-32" d="M 1844 884 
L 3897 884 
L 3897 0 
L 506 0 
L 506 884 
L 2209 2388 
Q 2438 2594 2547 2791 
Q 2656 2988 2656 3200 
Q 2656 3528 2436 3728 
Q 2216 3928 1850 3928 
Q 1569 3928 1234 3808 
Q 900 3688 519 3450 
L 519 4475 
Q 925 4609 1322 4679 
Q 1719 4750 2100 4750 
Q 2938 4750 3402 4381 
Q 3866 4013 3866 3353 
Q 3866 2972 3669 2642 
Q 3472 2313 2841 1759 
L 1844 884 
z
" transform="scale(0.015625)"/>
     </defs>
     <use xlink:href="#DejaVuSans-Bold-32"/>
    </g>
   </g>
   <g id="text_4">
    <!-- 3 -->
    <g transform="translate(136.347491 85.691195) scale(0.1 -0.1)">
     <defs>
      <path id="DejaVuSans-Bold-33" d="M 2981 2516 
Q 3453 2394 3698 2092 
Q 3944 1791 3944 1325 
Q 3944 631 3412 270 
Q 2881 -91 1863 -91 
Q 1503 -91 1142 -33 
Q 781 25 428 141 
L 428 1069 
Q 766 900 1098 814 
Q 1431 728 1753 728 
Q 2231 728 2486 893 
Q 2741 1059 2741 1369 
Q 2741 1688 2480 1852 
Q 2219 2016 1709 2016 
L 1228 2016 
L 1228 2791 
L 1734 2791 
Q 2188 2791 2409 2933 
Q 2631 3075 2631 3366 
Q 2631 3634 2415 3781 
Q 2200 3928 1806 3928 
Q 1516 3928 1219 3862 
Q 922 3797 628 3669 
L 628 4550 
Q 984 4650 1334 4700 
Q 1684 4750 2022 4750 
Q 2931 4750 3382 4451 
Q 3834 4153 3834 3553 
Q 3834 3144 3618 2883 
Q 3403 2622 2981 2516 
z
" transform="scale(0.015625)"/>
     </defs>
     <use xlink:href="#DejaVuSans-Bold-33"/>
    </g>
   </g>
   <g id="text_5">
    <!-- 4 -->
    <g transform="translate(364.042416 239.66201) scale(0.1 -0.1)">
     <defs>
      <path id="DejaVuSans-Bold-34" d="M 2356 3675 
L 1038 1722 
L 2356 1722 
L 2356 3675 
z
M 2156 4666 
L 3494 4666 
L 3494 1722 
L 4159 1722 
L 4159 850 
L 3494 850 
L 3494 0 
L 2356 0 
L 2356 850 
L 288 850 
L 288 1881 
L 2156 4666 
z
" transform="scale(0.015625)"/>
     </defs>
     <use xlink:href="#DejaVuSans-Bold-34"/>
    </g>
   </g>
   <g id="text_6">
    <!-- 5 -->
    <g transform="translate(289.661697 81.754652) scale(0.1 -0.1)">
     <defs>
      <path id="DejaVuSans-Bold-35" d="M 678 4666 
L 3669 4666 
L 3669 3781 
L 1638 3781 
L 1638 3059 
Q 1775 3097 1914 3117 
Q 2053 3138 2203 3138 
Q 3056 3138 3531 2711 
Q 4006 2284 4006 1522 
Q 4006 766 3489 337 
Q 2972 -91 2053 -91 
Q 1656 -91 1267 -14 
Q 878 63 494 219 
L 494 1166 
Q 875 947 1217 837 
Q 1559 728 1863 728 
Q 2300 728 2551 942 
Q 2803 1156 2803 1522 
Q 2803 1891 2551 2103 
Q 2300 2316 1863 2316 
Q 1603 2316 1309 2248 
Q 1016 2181 678 2041 
L 678 4666 
z
" transform="scale(0.015625)"/>
     </defs>
     <use xlink:href="#DejaVuSans-Bold-35"/>
    </g>
   </g>
   <g id="text_7">
    <!-- 6 -->
    <g transform="translate(218.051823 49.069566) scale(0.1 -0.1)">
     <defs>
      <path id="DejaVuSans-Bold-36" d="M 2316 2303 
Q 2000 2303 1842 2098 
Q 1684 1894 1684 1484 
Q 1684 1075 1842 870 
Q 2000 666 2316 666 
Q 2634 666 2792 870 
Q 2950 1075 2950 1484 
Q 2950 1894 2792 2098 
Q 2634 2303 2316 2303 
z
M 3803 4544 
L 3803 3681 
Q 3506 3822 3243 3889 
Q 2981 3956 2731 3956 
Q 2194 3956 1894 3657 
Q 1594 3359 1544 2772 
Q 1750 2925 1990 3001 
Q 2231 3078 2516 3078 
Q 3231 3078 3670 2659 
Q 4109 2241 4109 1563 
Q 4109 813 3618 361 
Q 3128 -91 2303 -91 
Q 1394 -91 895 523 
Q 397 1138 397 2266 
Q 397 3422 980 4083 
Q 1563 4744 2578 4744 
Q 2900 4744 3203 4694 
Q 3506 4644 3803 4544 
z
" transform="scale(0.015625)"/>
     </defs>
     <use xlink:href="#DejaVuSans-Bold-36"/>
    </g>
   </g>
   <g id="text_8">
    <!-- PAGA Graph - 151510 -->
    <g transform="translate(139.2975 16.318125) scale(0.12 -0.12)">
     <defs>
      <path id="DejaVuSans-50" d="M 1259 4147 
L 1259 2394 
L 2053 2394 
Q 2494 2394 2734 2622 
Q 2975 2850 2975 3272 
Q 2975 3691 2734 3919 
Q 2494 4147 2053 4147 
L 1259 4147 
z
M 628 4666 
L 2053 4666 
Q 2838 4666 3239 4311 
Q 3641 3956 3641 3272 
Q 3641 2581 3239 2228 
Q 2838 1875 2053 1875 
L 1259 1875 
L 1259 0 
L 628 0 
L 628 4666 
z
" transform="scale(0.015625)"/>
      <path id="DejaVuSans-41" d="M 2188 4044 
L 1331 1722 
L 3047 1722 
L 2188 4044 
z
M 1831 4666 
L 2547 4666 
L 4325 0 
L 3669 0 
L 3244 1197 
L 1141 1197 
L 716 0 
L 50 0 
L 1831 4666 
z
" transform="scale(0.015625)"/>
      <path id="DejaVuSans-47" d="M 3809 666 
L 3809 1919 
L 2778 1919 
L 2778 2438 
L 4434 2438 
L 4434 434 
Q 4069 175 3628 42 
Q 3188 -91 2688 -91 
Q 1594 -91 976 548 
Q 359 1188 359 2328 
Q 359 3472 976 4111 
Q 1594 4750 2688 4750 
Q 3144 4750 3555 4637 
Q 3966 4525 4313 4306 
L 4313 3634 
Q 3963 3931 3569 4081 
Q 3175 4231 2741 4231 
Q 1884 4231 1454 3753 
Q 1025 3275 1025 2328 
Q 1025 1384 1454 906 
Q 1884 428 2741 428 
Q 3075 428 3337 486 
Q 3600 544 3809 666 
z
" transform="scale(0.015625)"/>
      <path id="DejaVuSans-20" transform="scale(0.015625)"/>
      <path id="DejaVuSans-72" d="M 2631 2963 
Q 2534 3019 2420 3045 
Q 2306 3072 2169 3072 
Q 1681 3072 1420 2755 
Q 1159 2438 1159 1844 
L 1159 0 
L 581 0 
L 581 3500 
L 1159 3500 
L 1159 2956 
Q 1341 3275 1631 3429 
Q 1922 3584 2338 3584 
Q 2397 3584 2469 3576 
Q 2541 3569 2628 3553 
L 2631 2963 
z
" transform="scale(0.015625)"/>
      <path id="DejaVuSans-61" d="M 2194 1759 
Q 1497 1759 1228 1600 
Q 959 1441 959 1056 
Q 959 750 1161 570 
Q 1363 391 1709 391 
Q 2188 391 2477 730 
Q 2766 1069 2766 1631 
L 2766 1759 
L 2194 1759 
z
M 3341 1997 
L 3341 0 
L 2766 0 
L 2766 531 
Q 2569 213 2275 61 
Q 1981 -91 1556 -91 
Q 1019 -91 701 211 
Q 384 513 384 1019 
Q 384 1609 779 1909 
Q 1175 2209 1959 2209 
L 2766 2209 
L 2766 2266 
Q 2766 2663 2505 2880 
Q 2244 3097 1772 3097 
Q 1472 3097 1187 3025 
Q 903 2953 641 2809 
L 641 3341 
Q 956 3463 1253 3523 
Q 1550 3584 1831 3584 
Q 2591 3584 2966 3190 
Q 3341 2797 3341 1997 
z
" transform="scale(0.015625)"/>
      <path id="DejaVuSans-70" d="M 1159 525 
L 1159 -1331 
L 581 -1331 
L 581 3500 
L 1159 3500 
L 1159 2969 
Q 1341 3281 1617 3432 
Q 1894 3584 2278 3584 
Q 2916 3584 3314 3078 
Q 3713 2572 3713 1747 
Q 3713 922 3314 415 
Q 2916 -91 2278 -91 
Q 1894 -91 1617 61 
Q 1341 213 1159 525 
z
M 3116 1747 
Q 3116 2381 2855 2742 
Q 2594 3103 2138 3103 
Q 1681 3103 1420 2742 
Q 1159 2381 1159 1747 
Q 1159 1113 1420 752 
Q 1681 391 2138 391 
Q 2594 391 2855 752 
Q 3116 1113 3116 1747 
z
" transform="scale(0.015625)"/>
      <path id="DejaVuSans-68" d="M 3513 2113 
L 3513 0 
L 2938 0 
L 2938 2094 
Q 2938 2591 2744 2837 
Q 2550 3084 2163 3084 
Q 1697 3084 1428 2787 
Q 1159 2491 1159 1978 
L 1159 0 
L 581 0 
L 581 4863 
L 1159 4863 
L 1159 2956 
Q 1366 3272 1645 3428 
Q 1925 3584 2291 3584 
Q 2894 3584 3203 3211 
Q 3513 2838 3513 2113 
z
" transform="scale(0.015625)"/>
      <path id="DejaVuSans-2d" d="M 313 2009 
L 1997 2009 
L 1997 1497 
L 313 1497 
L 313 2009 
z
" transform="scale(0.015625)"/>
      <path id="DejaVuSans-31" d="M 794 531 
L 1825 531 
L 1825 4091 
L 703 3866 
L 703 4441 
L 1819 4666 
L 2450 4666 
L 2450 531 
L 3481 531 
L 3481 0 
L 794 0 
L 794 531 
z
" transform="scale(0.015625)"/>
      <path id="DejaVuSans-35" d="M 691 4666 
L 3169 4666 
L 3169 4134 
L 1269 4134 
L 1269 2991 
Q 1406 3038 1543 3061 
Q 1681 3084 1819 3084 
Q 2600 3084 3056 2656 
Q 3513 2228 3513 1497 
Q 3513 744 3044 326 
Q 2575 -91 1722 -91 
Q 1428 -91 1123 -41 
Q 819 9 494 109 
L 494 744 
Q 775 591 1075 516 
Q 1375 441 1709 441 
Q 2250 441 2565 725 
Q 2881 1009 2881 1497 
Q 2881 1984 2565 2268 
Q 2250 2553 1709 2553 
Q 1456 2553 1204 2497 
Q 953 2441 691 2322 
L 691 4666 
z
" transform="scale(0.015625)"/>
      <path id="DejaVuSans-30" d="M 2034 4250 
Q 1547 4250 1301 3770 
Q 1056 3291 1056 2328 
Q 1056 1369 1301 889 
Q 1547 409 2034 409 
Q 2525 409 2770 889 
Q 3016 1369 3016 2328 
Q 3016 3291 2770 3770 
Q 2525 4250 2034 4250 
z
M 2034 4750 
Q 2819 4750 3233 4129 
Q 3647 3509 3647 2328 
Q 3647 1150 3233 529 
Q 2819 -91 2034 -91 
Q 1250 -91 836 529 
Q 422 1150 422 2328 
Q 422 3509 836 4129 
Q 1250 4750 2034 4750 
z
" transform="scale(0.015625)"/>
     </defs>
     <use xlink:href="#DejaVuSans-50"/>
     <use xlink:href="#DejaVuSans-41" x="53.927734"/>
     <use xlink:href="#DejaVuSans-47" x="120.585938"/>
     <use xlink:href="#DejaVuSans-41" x="198.076172"/>
     <use xlink:href="#DejaVuSans-20" x="266.484375"/>
     <use xlink:href="#DejaVuSans-47" x="298.271484"/>
     <use xlink:href="#DejaVuSans-72" x="375.761719"/>
     <use xlink:href="#DejaVuSans-61" x="416.875"/>
     <use xlink:href="#DejaVuSans-70" x="478.154297"/>
     <use xlink:href="#DejaVuSans-68" x="541.630859"/>
     <use xlink:href="#DejaVuSans-20" x="605.009766"/>
     <use xlink:href="#DejaVuSans-2d" x="636.796875"/>
     <use xlink:href="#DejaVuSans-20" x="672.880859"/>
     <use xlink:href="#DejaVuSans-31" x="704.667969"/>
     <use xlink:href="#DejaVuSans-35" x="768.291016"/>
     <use xlink:href="#DejaVuSans-31" x="831.914062"/>
     <use xlink:href="#DejaVuSans-35" x="895.537109"/>
     <use xlink:href="#DejaVuSans-31" x="959.160156"/>
     <use xlink:href="#DejaVuSans-30" x="1022.783203"/>
    </g>
   </g>
  </g>
 </g>
 <defs>
  <clipPath id="p475aa65cde">
   <rect x="7.2" y="22.318125" width="394.56" height="276.48"/>
  </clipPath>
 </defs>
</svg>
