<?xml version="1.0" encoding="utf-8" standalone="no"?>
<!DOCTYPE svg PUBLIC "-//W3C//DTD SVG 1.1//EN"
  "http://www.w3.org/Graphics/SVG/1.1/DTD/svg11.dtd">
<svg xmlns:xlink="http://www.w3.org/1999/xlink" width="408.96pt" height="305.998125pt" viewBox="0 0 408.96 305.998125" xmlns="http://www.w3.org/2000/svg" version="1.1">
 <metadata>
  <rdf:RDF xmlns:dc="http://purl.org/dc/elements/1.1/" xmlns:cc="http://creativecommons.org/ns#" xmlns:rdf="http://www.w3.org/1999/02/22-rdf-syntax-ns#">
   <cc:Work>
    <dc:type rdf:resource="http://purl.org/dc/dcmitype/StillImage"/>
    <dc:date>2026-03-29T21:42:08.104063</dc:date>
    <dc:format>image/svg+xml</dc:format>
    <dc:creator>
     <cc:Agent>
      <dc:title>Matplotlib v3.7.0, https://matplotlib.org/</dc:title>
     </cc:Agent>
    </dc:creator>
   </cc:Work>
  </rdf:RDF>
 </metadata>
 <defs>
  <style type="text/css">*{stroke-linejoin: round; stroke-linecap: butt}</style>
 </defs>
 <g id="figure_1">
  <g id="patch_1">
   <path d="M 0 305.998125 
L 408.96 305.998125 
L 408.96 0 
L 0 0 
z
" style="fill: #ffffff"/>
  </g>
  <g id="axes_1">
   <g id="LineCollection_1">
    <path d="M 251.097369 161.472127 
L 192.136436 161.177759 
" clip-path="url(#p56080c3854)" style="fill: none; stroke: #000000; stroke-width: 4.204709"/>
    <path d="M 251.097369 161.472127 
L 301.916377 161.723769 
" clip-path="url(#p56080c3854)" style="fill: none; stroke: #000000; stroke-width: 5.254398"/>
    <path d="M 192.136436 161.177759 
L 109.246114 160.752199 
" clip-path="url(#p56080c3854)" style="fill: none; stroke: #000000; stroke-width: 1.925693"/>
    <path d="M 301.916377 161.723769 
L 367.521322 162.047095 
" clip-path="url(#p56080c3854)" style="fill: none; stroke: #000000; stroke-width: 1.897511"/>
    <path d="M 109.246114 160.752199 
L 41.438678 274.806059 
" clip-path="url(#p56080c3854)" style="fill: none; stroke: #000000; stroke-width: 1.304878"/>
    <path d="M 109.246114 160.752199 
L 41.768039 46.310191 
" clip-path="url(#p56080c3854)" style="fill: none; stroke: #000000; stroke-width: 1.316262"/>
    <path d="M 41.438678 274.806059 
L 41.768039 46.310191 
" clip-path="url(#p56080c3854)" style="fill: none; stroke: #000000; stroke-width: 1.244989"/>
   </g>
   <g id="PathCollection_1">
    <path d="M 251.097369 166.717884 
C 252.488559 166.717884 253.822958 166.165158 254.806678 165.181437 
C 255.790399 164.197717 256.343125 162.863318 256.343125 161.472127 
C 256.343125 160.080936 255.790399 158.746538 254.806678 157.762817 
C 253.822958 156.779097 252.488559 156.226371 251.097369 156.226371 
C 249.706178 156.226371 248.371779 156.779097 247.388059 157.762817 
C 246.404338 158.746538 245.851612 160.080936 245.851612 161.472127 
C 245.851612 162.863318 246.404338 164.197717 247.388059 165.181437 
C 248.371779 166.165158 249.706178 166.717884 251.097369 166.717884 
z
" clip-path="url(#p56080c3854)" style="fill: #1f77b4; stroke: #1f77b4"/>
    <path d="M 192.136436 167.465762 
C 193.804034 167.465762 195.403555 166.803218 196.582725 165.624048 
C 197.761895 164.444879 198.424438 162.845357 198.424438 161.177759 
C 198.424438 159.510162 197.761895 157.91064 196.582725 156.73147 
C 195.403555 155.552301 193.804034 154.889757 192.136436 154.889757 
C 190.468838 154.889757 188.869317 155.552301 187.690147 156.73147 
C 186.510977 157.91064 185.848434 159.510162 185.848434 161.177759 
C 185.848434 162.845357 186.510977 164.444879 187.690147 165.624048 
C 188.869317 166.803218 190.468838 167.465762 192.136436 167.465762 
z
" clip-path="url(#p56080c3854)" style="fill: #ff7f0e; stroke: #ff7f0e"/>
    <path d="M 301.916377 167.341663 
C 303.40626 167.341663 304.835321 166.749727 305.888828 165.69622 
C 306.942334 164.642714 307.534271 163.213652 307.534271 161.723769 
C 307.534271 160.233886 306.942334 158.804824 305.888828 157.751318 
C 304.835321 156.697811 303.40626 156.105874 301.916377 156.105874 
C 300.426493 156.105874 298.997432 156.697811 297.943925 157.751318 
C 296.890419 158.804824 296.298482 160.233886 296.298482 161.723769 
C 296.298482 163.213652 296.890419 164.642714 297.943925 165.69622 
C 298.997432 166.749727 300.426493 167.341663 301.916377 167.341663 
z
" clip-path="url(#p56080c3854)" style="fill: #2ca02c; stroke: #2ca02c"/>
    <path d="M 109.246114 167.213066 
C 110.959556 167.213066 112.60305 166.532308 113.814637 165.320722 
C 115.026223 164.109135 115.706981 162.465641 115.706981 160.752199 
C 115.706981 159.038757 115.026223 157.395262 113.814637 156.183676 
C 112.60305 154.972089 110.959556 154.291331 109.246114 154.291331 
C 107.532672 154.291331 105.889177 154.972089 104.677591 156.183676 
C 103.466004 157.395262 102.785247 159.038757 102.785247 160.752199 
C 102.785247 162.465641 103.466004 164.109135 104.677591 165.320722 
C 105.889177 166.532308 107.532672 167.213066 109.246114 167.213066 
z
" clip-path="url(#p56080c3854)" style="fill: #d62728; stroke: #d62728"/>
    <path d="M 367.521322 168.555243 
C 369.247303 168.555243 370.902825 167.869504 372.123278 166.649051 
C 373.343731 165.428598 374.02947 163.773076 374.02947 162.047095 
C 374.02947 160.321114 373.343731 158.665592 372.123278 157.445139 
C 370.902825 156.224686 369.247303 155.538947 367.521322 155.538947 
C 365.795341 155.538947 364.13982 156.224686 362.919367 157.445139 
C 361.698914 158.665592 361.013174 160.321114 361.013174 162.047095 
C 361.013174 163.773076 361.698914 165.428598 362.919367 166.649051 
C 364.13982 167.869504 365.795341 168.555243 367.521322 168.555243 
z
" clip-path="url(#p56080c3854)" style="fill: #9467bd; stroke: #9467bd"/>
    <path d="M 41.438678 281.104949 
C 43.109163 281.104949 44.711454 280.441259 45.892666 279.260047 
C 47.073877 278.078836 47.737568 276.476544 47.737568 274.806059 
C 47.737568 273.135574 47.073877 271.533282 45.892666 270.352071 
C 44.711454 269.170859 43.109163 268.507168 41.438678 268.507168 
C 39.768192 268.507168 38.165901 269.170859 36.984689 270.352071 
C 35.803478 271.533282 35.139787 273.135574 35.139787 274.806059 
C 35.139787 276.476544 35.803478 278.078836 36.984689 279.260047 
C 38.165901 280.441259 39.768192 281.104949 41.438678 281.104949 
z
" clip-path="url(#p56080c3854)" style="fill: #8c564b; stroke: #8c564b"/>
    <path d="M 41.768039 52.576245 
C 43.429816 52.576245 45.023754 51.916014 46.198808 50.740961 
C 47.373862 49.565907 48.034093 47.971968 48.034093 46.310191 
C 48.034093 44.648414 47.373862 43.054475 46.198808 41.879422 
C 45.023754 40.704368 43.429816 40.044137 41.768039 40.044137 
C 40.106262 40.044137 38.512323 40.704368 37.337269 41.879422 
C 36.162215 43.054475 35.501984 44.648414 35.501984 46.310191 
C 35.501984 47.971968 36.162215 49.565907 37.337269 50.740961 
C 38.512323 51.916014 40.106262 52.576245 41.768039 52.576245 
z
" clip-path="url(#p56080c3854)" style="fill: #e377c2; stroke: #e377c2"/>
   </g>
   <g id="matplotlib.axis_1"/>
   <g id="matplotlib.axis_2"/>
   <g id="text_1">
    <!-- 0 -->
    <g transform="translate(247.618462 164.231502) scale(0.1 -0.1)">
     <defs>
      <path id="DejaVuSans-Bold-30" d="M 2944 2338 
Q 2944 3213 2780 3570 
Q 2616 3928 2228 3928 
Q 1841 3928 1675 3570 
Q 1509 3213 1509 2338 
Q 1509 1453 1675 1090 
Q 1841 728 2228 728 
Q 2613 728 2778 1090 
Q 2944 1453 2944 2338 
z
M 4147 2328 
Q 4147 1169 3647 539 
Q 3147 -91 2228 -91 
Q 1306 -91 806 539 
Q 306 1169 306 2328 
Q 306 3491 806 4120 
Q 1306 4750 2228 4750 
Q 3147 4750 3647 4120 
Q 4147 3491 4147 2328 
z
" transform="scale(0.015625)"/>
     </defs>
     <use xlink:href="#DejaVuSans-Bold-30"/>
    </g>
   </g>
   <g id="text_2">
    <!-- 1 -->
    <g transform="translate(188.65753 163.937134) scale(0.1 -0.1)">
     <defs>
      <path id="DejaVuSans-Bold-31" d="M 750 831 
L 1813 831 
L 1813 3847 
L 722 3622 
L 722 4441 
L 1806 4666 
L 2950 4666 
L 2950 831 
L 4013 831 
L 4013 0 
L 750 0 
L 750 831 
z
" transform="scale(0.015625)"/>
     </defs>
     <use xlink:href="#DejaVuSans-Bold-31"/>
    </g>
   </g>
   <g id="text_3">
    <!-- 2 -->
    <g transform="translate(298.43747 164.483144) scale(0.1 -0.1)">
     <defs>
      <path id="DejaVuSans-Bold-32" d="M 1844 884 
L 3897 884 
L 3897 0 
L 506 0 
L 506 884 
L 2209 2388 
Q 2438 2594 2547 2791 
Q 2656 2988 2656 3200 
Q 2656 3528 2436 3728 
Q 2216 3928 1850 3928 
Q 1569 3928 1234 3808 
Q 900 3688 519 3450 
L 519 4475 
Q 925 4609 1322 4679 
Q 1719 4750 2100 4750 
Q 2938 4750 3402 4381 
Q 3866 4013 3866 3353 
Q 3866 2972 3669 2642 
Q 3472 2313 2841 1759 
L 1844 884 
z
" transform="scale(0.015625)"/>
     </defs>
     <use xlink:href="#DejaVuSans-Bold-32"/>
    </g>
   </g>
   <g id="text_4">
    <!-- 3 -->
    <g transform="translate(105.767208 163.511574) scale(0.1 -0.1)">
     <defs>
      <path id="DejaVuSans-Bold-33" d="M 2981 2516 
Q 3453 2394 3698 2092 
Q 3944 1791 3944 1325 
Q 3944 631 3412 270 
Q 2881 -91 1863 -91 
Q 1503 -91 1142 -33 
Q 781 25 428 141 
L 428 1069 
Q 766 900 1098 814 
Q 1431 728 1753 728 
Q 2231 728 2486 893 
Q 2741 1059 2741 1369 
Q 2741 1688 2480 1852 
Q 2219 2016 1709 2016 
L 1228 2016 
L 1228 2791 
L 1734 2791 
Q 2188 2791 2409 2933 
Q 2631 3075 2631 3366 
Q 2631 3634 2415 3781 
Q 2200 3928 1806 3928 
Q 1516 3928 1219 3862 
Q 922 3797 628 3669 
L 628 4550 
Q 984 4650 1334 4700 
Q 1684 4750 2022 4750 
Q 2931 4750 3382 4451 
Q 3834 4153 3834 3553 
Q 3834 3144 3618 2883 
Q 3403 2622 2981 2516 
z
" transform="scale(0.015625)"/>
     </defs>
     <use xlink:href="#DejaVuSans-Bold-33"/>
    </g>
   </g>
   <g id="text_5">
    <!-- 4 -->
    <g transform="translate(364.042416 164.80647) scale(0.1 -0.1)">
     <defs>
      <path id="DejaVuSans-Bold-34" d="M 2356 3675 
L 1038 1722 
L 2356 1722 
L 2356 3675 
z
M 2156 4666 
L 3494 4666 
L 3494 1722 
L 4159 1722 
L 4159 850 
L 3494 850 
L 3494 0 
L 2356 0 
L 2356 850 
L 288 850 
L 288 1881 
L 2156 4666 
z
" transform="scale(0.015625)"/>
     </defs>
     <use xlink:href="#DejaVuSans-Bold-34"/>
    </g>
   </g>
   <g id="text_6">
    <!-- 5 -->
    <g transform="translate(37.959771 277.565434) scale(0.1 -0.1)">
     <defs>
      <path id="DejaVuSans-Bold-35" d="M 678 4666 
L 3669 4666 
L 3669 3781 
L 1638 3781 
L 1638 3059 
Q 1775 3097 1914 3117 
Q 2053 3138 2203 3138 
Q 3056 3138 3531 2711 
Q 4006 2284 4006 1522 
Q 4006 766 3489 337 
Q 2972 -91 2053 -91 
Q 1656 -91 1267 -14 
Q 878 63 494 219 
L 494 1166 
Q 875 947 1217 837 
Q 1559 728 1863 728 
Q 2300 728 2551 942 
Q 2803 1156 2803 1522 
Q 2803 1891 2551 2103 
Q 2300 2316 1863 2316 
Q 1603 2316 1309 2248 
Q 1016 2181 678 2041 
L 678 4666 
z
" transform="scale(0.015625)"/>
     </defs>
     <use xlink:href="#DejaVuSans-Bold-35"/>
    </g>
   </g>
   <g id="text_7">
    <!-- 6 -->
    <g transform="translate(38.289132 49.069566) scale(0.1 -0.1)">
     <defs>
      <path id="DejaVuSans-Bold-36" d="M 2316 2303 
Q 2000 2303 1842 2098 
Q 1684 1894 1684 1484 
Q 1684 1075 1842 870 
Q 2000 666 2316 666 
Q 2634 666 2792 870 
Q 2950 1075 2950 1484 
Q 2950 1894 2792 2098 
Q 2634 2303 2316 2303 
z
M 3803 4544 
L 3803 3681 
Q 3506 3822 3243 3889 
Q 2981 3956 2731 3956 
Q 2194 3956 1894 3657 
Q 1594 3359 1544 2772 
Q 1750 2925 1990 3001 
Q 2231 3078 2516 3078 
Q 3231 3078 3670 2659 
Q 4109 2241 4109 1563 
Q 4109 813 3618 361 
Q 3128 -91 2303 -91 
Q 1394 -91 895 523 
Q 397 1138 397 2266 
Q 397 3422 980 4083 
Q 1563 4744 2578 4744 
Q 2900 4744 3203 4694 
Q 3506 4644 3803 4544 
z
" transform="scale(0.015625)"/>
     </defs>
     <use xlink:href="#DejaVuSans-Bold-36"/>
    </g>
   </g>
   <g id="text_8">
    <!-- PAGA Graph - 151674 -->
    <g transform="translate(139.2975 16.318125) scale(0.12 -0.12)">
     <defs>
      <path id="DejaVuSans-50" d="M 1259 4147 
L 1259 2394 
L 2053 2394 
Q 2494 2394 2734 2622 
Q 2975 2850 2975 3272 
Q 2975 3691 2734 3919 
Q 2494 4147 2053 4147 
L 1259 4147 
z
M 628 4666 
L 2053 4666 
Q 2838 4666 3239 4311 
Q 3641 3956 3641 3272 
Q 3641 2581 3239 2228 
Q 2838 1875 2053 1875 
L 1259 1875 
L 1259 0 
L 628 0 
L 628 4666 
z
" transform="scale(0.015625)"/>
      <path id="DejaVuSans-41" d="M 2188 4044 
L 1331 1722 
L 3047 1722 
L 2188 4044 
z
M 1831 4666 
L 2547 4666 
L 4325 0 
L 3669 0 
L 3244 1197 
L 1141 1197 
L 716 0 
L 50 0 
L 1831 4666 
z
" transform="scale(0.015625)"/>
      <path id="DejaVuSans-47" d="M 3809 666 
L 3809 1919 
L 2778 1919 
L 2778 2438 
L 4434 2438 
L 4434 434 
Q 4069 175 3628 42 
Q 3188 -91 2688 -91 
Q 1594 -91 976 548 
Q 359 1188 359 2328 
Q 359 3472 976 4111 
Q 1594 4750 2688 4750 
Q 3144 4750 3555 4637 
Q 3966 4525 4313 4306 
L 4313 3634 
Q 3963 3931 3569 4081 
Q 3175 4231 2741 4231 
Q 1884 4231 1454 3753 
Q 1025 3275 1025 2328 
Q 1025 1384 1454 906 
Q 1884 428 2741 428 
Q 3075 428 3337 486 
Q 3600 544 3809 666 
z
" transform="scale(0.015625)"/>
      <path id="DejaVuSans-20" transform="scale(0.015625)"/>
      <path id="DejaVuSans-72" d="M 2631 2963 
Q 2534 3019 2420 3045 
Q 2306 3072 2169 3072 
Q 1681 3072 1420 2755 
Q 1159 2438 1159 1844 
L 1159 0 
L 581 0 
L 581 3500 
L 1159 3500 
L 1159 2956 
Q 1341 3275 1631 3429 
Q 1922 3584 2338 3584 
Q 2397 3584 2469 3576 
Q 2541 3569 2628 3553 
L 2631 2963 
z
" transform="scale(0.015625)"/>
      <path id="DejaVuSans-61" d="M 2194 1759 
Q 1497 1759 1228 1600 
Q 959 1441 959 1056 
Q 959 750 1161 570 
Q 1363 391 1709 391 
Q 2188 391 2477 730 
Q 2766 1069 2766 1631 
L 2766 1759 
L 2194 1759 
z
M 3341 1997 
L 3341 0 
L 2766 0 
L 2766 531 
Q 2569 213 2275 61 
Q 1981 -91 1556 -91 
Q 1019 -91 701 211 
Q 384 513 384 1019 
Q 384 1609 779 1909 
Q 1175 2209 1959 2209 
L 2766 2209 
L 2766 2266 
Q 2766 2663 2505 2880 
Q 2244 3097 1772 3097 
Q 1472 3097 1187 3025 
Q 903 2953 641 2809 
L 641 3341 
Q 956 3463 1253 3523 
Q 1550 3584 1831 3584 
Q 2591 3584 2966 3190 
Q 3341 2797 3341 1997 
z
" transform="scale(0.015625)"/>
      <path id="DejaVuSans-70" d="M 1159 525 
L 1159 -1331 
L 581 -1331 
L 581 3500 
L 1159 3500 
L 1159 2969 
Q 1341 3281 1617 3432 
Q 1894 3584 2278 3584 
Q 2916 3584 3314 3078 
Q 3713 2572 3713 1747 
Q 3713 922 3314 415 
Q 2916 -91 2278 -91 
Q 1894 -91 1617 61 
Q 1341 213 1159 525 
z
M 3116 1747 
Q 3116 2381 2855 2742 
Q 2594 3103 2138 3103 
Q 1681 3103 1420 2742 
Q 1159 2381 1159 1747 
Q 1159 1113 1420 752 
Q 1681 391 2138 391 
Q 2594 391 2855 752 
Q 3116 1113 3116 1747 
z
" transform="scale(0.015625)"/>
      <path id="DejaVuSans-68" d="M 3513 2113 
L 3513 0 
L 2938 0 
L 2938 2094 
Q 2938 2591 2744 2837 
Q 2550 3084 2163 3084 
Q 1697 3084 1428 2787 
Q 1159 2491 1159 1978 
L 1159 0 
L 581 0 
L 581 4863 
L 1159 4863 
L 1159 2956 
Q 1366 3272 1645 3428 
Q 1925 3584 2291 3584 
Q 2894 3584 3203 3211 
Q 3513 2838 3513 2113 
z
" transform="scale(0.015625)"/>
      <path id="DejaVuSans-2d" d="M 313 2009 
L 1997 2009 
L 1997 1497 
L 313 1497 
L 313 2009 
z
" transform="scale(0.015625)"/>
      <path id="DejaVuSans-31" d="M 794 531 
L 1825 531 
L 1825 4091 
L 703 3866 
L 703 4441 
L 1819 4666 
L 2450 4666 
L 2450 531 
L 3481 531 
L 3481 0 
L 794 0 
L 794 531 
z
" transform="scale(0.015625)"/>
      <path id="DejaVuSans-35" d="M 691 4666 
L 3169 4666 
L 3169 4134 
L 1269 4134 
L 1269 2991 
Q 1406 3038 1543 3061 
Q 1681 3084 1819 3084 
Q 2600 3084 3056 2656 
Q 3513 2228 3513 1497 
Q 3513 744 3044 326 
Q 2575 -91 1722 -91 
Q 1428 -91 1123 -41 
Q 819 9 494 109 
L 494 744 
Q 775 591 1075 516 
Q 1375 441 1709 441 
Q 2250 441 2565 725 
Q 2881 1009 2881 1497 
Q 2881 1984 2565 2268 
Q 2250 2553 1709 2553 
Q 1456 2553 1204 2497 
Q 953 2441 691 2322 
L 691 4666 
z
" transform="scale(0.015625)"/>
      <path id="DejaVuSans-36" d="M 2113 2584 
Q 1688 2584 1439 2293 
Q 1191 2003 1191 1497 
Q 1191 994 1439 701 
Q 1688 409 2113 409 
Q 2538 409 2786 701 
Q 3034 994 3034 1497 
Q 3034 2003 2786 2293 
Q 2538 2584 2113 2584 
z
M 3366 4563 
L 3366 3988 
Q 3128 4100 2886 4159 
Q 2644 4219 2406 4219 
Q 1781 4219 1451 3797 
Q 1122 3375 1075 2522 
Q 1259 2794 1537 2939 
Q 1816 3084 2150 3084 
Q 2853 3084 3261 2657 
Q 3669 2231 3669 1497 
Q 3669 778 3244 343 
Q 2819 -91 2113 -91 
Q 1303 -91 875 529 
Q 447 1150 447 2328 
Q 447 3434 972 4092 
Q 1497 4750 2381 4750 
Q 2619 4750 2861 4703 
Q 3103 4656 3366 4563 
z
" transform="scale(0.015625)"/>
      <path id="DejaVuSans-37" d="M 525 4666 
L 3525 4666 
L 3525 4397 
L 1831 0 
L 1172 0 
L 2766 4134 
L 525 4134 
L 525 4666 
z
" transform="scale(0.015625)"/>
      <path id="DejaVuSans-34" d="M 2419 4116 
L 825 1625 
L 2419 1625 
L 2419 4116 
z
M 2253 4666 
L 3047 4666 
L 3047 1625 
L 3713 1625 
L 3713 1100 
L 3047 1100 
L 3047 0 
L 2419 0 
L 2419 1100 
L 313 1100 
L 313 1709 
L 2253 4666 
z
" transform="scale(0.015625)"/>
     </defs>
     <use xlink:href="#DejaVuSans-50"/>
     <use xlink:href="#DejaVuSans-41" x="53.927734"/>
     <use xlink:href="#DejaVuSans-47" x="120.585938"/>
     <use xlink:href="#DejaVuSans-41" x="198.076172"/>
     <use xlink:href="#DejaVuSans-20" x="266.484375"/>
     <use xlink:href="#DejaVuSans-47" x="298.271484"/>
     <use xlink:href="#DejaVuSans-72" x="375.761719"/>
     <use xlink:href="#DejaVuSans-61" x="416.875"/>
     <use xlink:href="#DejaVuSans-70" x="478.154297"/>
     <use xlink:href="#DejaVuSans-68" x="541.630859"/>
     <use xlink:href="#DejaVuSans-20" x="605.009766"/>
     <use xlink:href="#DejaVuSans-2d" x="636.796875"/>
     <use xlink:href="#DejaVuSans-20" x="672.880859"/>
     <use xlink:href="#DejaVuSans-31" x="704.667969"/>
     <use xlink:href="#DejaVuSans-35" x="768.291016"/>
     <use xlink:href="#DejaVuSans-31" x="831.914062"/>
     <use xlink:href="#DejaVuSans-36" x="895.537109"/>
     <use xlink:href="#DejaVuSans-37" x="959.160156"/>
     <use xlink:href="#DejaVuSans-34" x="1022.783203"/>
    </g>
   </g>
  </g>
 </g>
 <defs>
  <clipPath id="p56080c3854">
   <rect x="7.2" y="22.318125" width="394.56" height="276.48"/>
  </clipPath>
 </defs>
</svg>
