<?xml version="1.0" encoding="utf-8" standalone="no"?>
<!DOCTYPE svg PUBLIC "-//W3C//DTD SVG 1.1//EN"
  "http://www.w3.org/Graphics/SVG/1.1/DTD/svg11.dtd">
<svg xmlns:xlink="http://www.w3.org/1999/xlink" width="408.96pt" height="305.998125pt" viewBox="0 0 408.96 305.998125" xmlns="http://www.w3.org/2000/svg" version="1.1">
 <metadata>
  <rdf:RDF xmlns:dc="http://purl.org/dc/elements/1.1/" xmlns:cc="http://creativecommons.org/ns#" xmlns:rdf="http://www.w3.org/1999/02/22-rdf-syntax-ns#">
   <cc:Work>
    <dc:type rdf:resource="http://purl.org/dc/dcmitype/StillImage"/>
    <dc:date>2026-03-30T21:01:49.630181</dc:date>
    <dc:format>image/svg+xml</dc:format>
    <dc:creator>
     <cc:Agent>
      <dc:title>Matplotlib v3.7.0, https://matplotlib.org/</dc:title>
     </cc:Agent>
    </dc:creator>
   </cc:Work>
  </rdf:RDF>
 </metadata>
 <defs>
  <style type="text/css">*{stroke-linejoin: round; stroke-linecap: butt}</style>
 </defs>
 <g id="figure_1">
  <g id="patch_1">
   <path d="M 0 305.998125 
L 408.96 305.998125 
L 408.96 0 
L 0 0 
z
" style="fill: #ffffff"/>
  </g>
  <g id="axes_1">
   <g id="LineCollection_1">
    <path d="M 281.665503 46.310191 
L 41.438678 90.333389 
" clip-path="url(#pe8af1d0f0b)" style="fill: none; stroke: #000000; stroke-width: 0.08031"/>
    <path d="M 281.665503 46.310191 
L 367.521322 157.76181 
" clip-path="url(#pe8af1d0f0b)" style="fill: none; stroke: #000000; stroke-width: 1.750058"/>
    <path d="M 281.665503 46.310191 
L 287.672947 181.46329 
" clip-path="url(#pe8af1d0f0b)" style="fill: none; stroke: #000000; stroke-width: 1.981085"/>
    <path d="M 281.665503 46.310191 
L 165.679383 141.297203 
" clip-path="url(#pe8af1d0f0b)" style="fill: none; stroke: #000000; stroke-width: 2.417676"/>
    <path d="M 81.911489 274.806059 
L 41.438678 90.333389 
" clip-path="url(#pe8af1d0f0b)" style="fill: none; stroke: #000000; stroke-width: 1.157925"/>
    <path d="M 81.911489 274.806059 
L 287.672947 181.46329 
" clip-path="url(#pe8af1d0f0b)" style="fill: none; stroke: #000000; stroke-width: 0.460771"/>
    <path d="M 81.911489 274.806059 
L 99.566946 192.445139 
" clip-path="url(#pe8af1d0f0b)" style="fill: none; stroke: #000000; stroke-width: 7.5"/>
    <path d="M 81.911489 274.806059 
L 165.679383 141.297203 
" clip-path="url(#pe8af1d0f0b)" style="fill: none; stroke: #000000; stroke-width: 1.794179"/>
    <path d="M 41.438678 90.333389 
L 287.672947 181.46329 
" clip-path="url(#pe8af1d0f0b)" style="fill: none; stroke: #000000; stroke-width: 0.240473"/>
    <path d="M 41.438678 90.333389 
L 99.566946 192.445139 
" clip-path="url(#pe8af1d0f0b)" style="fill: none; stroke: #000000; stroke-width: 1.437338"/>
    <path d="M 41.438678 90.333389 
L 165.679383 141.297203 
" clip-path="url(#pe8af1d0f0b)" style="fill: none; stroke: #000000; stroke-width: 1.635624"/>
    <path d="M 367.521322 157.76181 
L 287.672947 181.46329 
" clip-path="url(#pe8af1d0f0b)" style="fill: none; stroke: #000000; stroke-width: 7.5"/>
    <path d="M 367.521322 157.76181 
L 165.679383 141.297203 
" clip-path="url(#pe8af1d0f0b)" style="fill: none; stroke: #000000; stroke-width: 0.16141"/>
    <path d="M 287.672947 181.46329 
L 99.566946 192.445139 
" clip-path="url(#pe8af1d0f0b)" style="fill: none; stroke: #000000; stroke-width: 0.204324"/>
    <path d="M 287.672947 181.46329 
L 165.679383 141.297203 
" clip-path="url(#pe8af1d0f0b)" style="fill: none; stroke: #000000; stroke-width: 1.747743"/>
    <path d="M 99.566946 192.445139 
L 165.679383 141.297203 
" clip-path="url(#pe8af1d0f0b)" style="fill: none; stroke: #000000; stroke-width: 7.5"/>
   </g>
   <g id="PathCollection_1">
    <path d="M 281.665503 53.452479 
C 283.559659 53.452479 285.376492 52.699922 286.715863 51.360551 
C 288.055234 50.02118 288.80779 48.204348 288.80779 46.310191 
C 288.80779 44.416034 288.055234 42.599202 286.715863 41.259831 
C 285.376492 39.92046 283.559659 39.167903 281.665503 39.167903 
C 279.771346 39.167903 277.954514 39.92046 276.615142 41.259831 
C 275.275771 42.599202 274.523215 44.416034 274.523215 46.310191 
C 274.523215 48.204348 275.275771 50.02118 276.615142 51.360551 
C 277.954514 52.699922 279.771346 53.452479 281.665503 53.452479 
z
" clip-path="url(#pe8af1d0f0b)" style="fill: #1f77b4; stroke: #1f77b4"/>
    <path d="M 81.911489 280.981639 
C 83.549271 280.981639 85.120196 280.330941 86.278283 279.172853 
C 87.43637 278.014766 88.087068 276.443842 88.087068 274.806059 
C 88.087068 273.168276 87.43637 271.597352 86.278283 270.439264 
C 85.120196 269.281177 83.549271 268.630479 81.911489 268.630479 
C 80.273706 268.630479 78.702782 269.281177 77.544694 270.439264 
C 76.386607 271.597352 75.735909 273.168276 75.735909 274.806059 
C 75.735909 276.443842 76.386607 278.014766 77.544694 279.172853 
C 78.702782 280.330941 80.273706 280.981639 81.911489 280.981639 
z
" clip-path="url(#pe8af1d0f0b)" style="fill: #ff7f0e; stroke: #ff7f0e"/>
    <path d="M 41.438678 97.455221 
C 43.32741 97.455221 45.139038 96.70482 46.474574 95.369285 
C 47.810109 94.03375 48.56051 92.222121 48.56051 90.333389 
C 48.56051 88.444657 47.810109 86.633028 46.474574 85.297493 
C 45.139038 83.961958 43.32741 83.211556 41.438678 83.211556 
C 39.549946 83.211556 37.738317 83.961958 36.402782 85.297493 
C 35.067246 86.633028 34.316845 88.444657 34.316845 90.333389 
C 34.316845 92.222121 35.067246 94.03375 36.402782 95.369285 
C 37.738317 96.70482 39.549946 97.455221 41.438678 97.455221 
z
" clip-path="url(#pe8af1d0f0b)" style="fill: #2ca02c; stroke: #2ca02c"/>
    <path d="M 367.521322 164.924379 
C 369.420858 164.924379 371.242849 164.169686 372.586023 162.826511 
C 373.929198 161.483337 374.683891 159.661346 374.683891 157.76181 
C 374.683891 155.862275 373.929198 154.040283 372.586023 152.697109 
C 371.242849 151.353935 369.420858 150.599241 367.521322 150.599241 
C 365.621787 150.599241 363.799796 151.353935 362.456621 152.697109 
C 361.113447 154.040283 360.358753 155.862275 360.358753 157.76181 
C 360.358753 159.661346 361.113447 161.483337 362.456621 162.826511 
C 363.799796 164.169686 365.621787 164.924379 367.521322 164.924379 
z
" clip-path="url(#pe8af1d0f0b)" style="fill: #d62728; stroke: #d62728"/>
    <path d="M 287.672947 186.440046 
C 288.992798 186.440046 290.258769 185.915664 291.192045 184.982388 
C 292.125321 184.049112 292.649703 182.783141 292.649703 181.46329 
C 292.649703 180.143439 292.125321 178.877468 291.192045 177.944192 
C 290.258769 177.010917 288.992798 176.486534 287.672947 176.486534 
C 286.353096 176.486534 285.087125 177.010917 284.153849 177.944192 
C 283.220574 178.877468 282.696191 180.143439 282.696191 181.46329 
C 282.696191 182.783141 283.220574 184.049112 284.153849 184.982388 
C 285.087125 185.915664 286.353096 186.440046 287.672947 186.440046 
z
" clip-path="url(#pe8af1d0f0b)" style="fill: #9467bd; stroke: #9467bd"/>
    <path d="M 99.566946 197.184731 
C 100.823901 197.184731 102.029543 196.685338 102.918344 195.796537 
C 103.807145 194.907736 104.306538 193.702094 104.306538 192.445139 
C 104.306538 191.188185 103.807145 189.982543 102.918344 189.093742 
C 102.029543 188.204941 100.823901 187.705547 99.566946 187.705547 
C 98.309992 187.705547 97.10435 188.204941 96.215549 189.093742 
C 95.326748 189.982543 94.827354 191.188185 94.827354 192.445139 
C 94.827354 193.702094 95.326748 194.907736 96.215549 195.796537 
C 97.10435 196.685338 98.309992 197.184731 99.566946 197.184731 
z
" clip-path="url(#pe8af1d0f0b)" style="fill: #8c564b; stroke: #8c564b"/>
    <path d="M 165.679383 147.585205 
C 167.346981 147.585205 168.946503 146.922662 170.125672 145.743492 
C 171.304842 144.564322 171.967385 142.964801 171.967385 141.297203 
C 171.967385 139.629605 171.304842 138.030084 170.125672 136.850914 
C 168.946503 135.671744 167.346981 135.009201 165.679383 135.009201 
C 164.011786 135.009201 162.412264 135.671744 161.233094 136.850914 
C 160.053925 138.030084 159.391381 139.629605 159.391381 141.297203 
C 159.391381 142.964801 160.053925 144.564322 161.233094 145.743492 
C 162.412264 146.922662 164.011786 147.585205 165.679383 147.585205 
z
" clip-path="url(#pe8af1d0f0b)" style="fill: #e377c2; stroke: #e377c2"/>
   </g>
   <g id="matplotlib.axis_1"/>
   <g id="matplotlib.axis_2"/>
   <g id="text_1">
    <!-- 0 -->
    <g transform="translate(278.186596 49.069566) scale(0.1 -0.1)">
     <defs>
      <path id="DejaVuSans-Bold-30" d="M 2944 2338 
Q 2944 3213 2780 3570 
Q 2616 3928 2228 3928 
Q 1841 3928 1675 3570 
Q 1509 3213 1509 2338 
Q 1509 1453 1675 1090 
Q 1841 728 2228 728 
Q 2613 728 2778 1090 
Q 2944 1453 2944 2338 
z
M 4147 2328 
Q 4147 1169 3647 539 
Q 3147 -91 2228 -91 
Q 1306 -91 806 539 
Q 306 1169 306 2328 
Q 306 3491 806 4120 
Q 1306 4750 2228 4750 
Q 3147 4750 3647 4120 
Q 4147 3491 4147 2328 
z
" transform="scale(0.015625)"/>
     </defs>
     <use xlink:href="#DejaVuSans-Bold-30"/>
    </g>
   </g>
   <g id="text_2">
    <!-- 1 -->
    <g transform="translate(78.432582 277.565434) scale(0.1 -0.1)">
     <defs>
      <path id="DejaVuSans-Bold-31" d="M 750 831 
L 1813 831 
L 1813 3847 
L 722 3622 
L 722 4441 
L 1806 4666 
L 2950 4666 
L 2950 831 
L 4013 831 
L 4013 0 
L 750 0 
L 750 831 
z
" transform="scale(0.015625)"/>
     </defs>
     <use xlink:href="#DejaVuSans-Bold-31"/>
    </g>
   </g>
   <g id="text_3">
    <!-- 2 -->
    <g transform="translate(37.959771 93.092764) scale(0.1 -0.1)">
     <defs>
      <path id="DejaVuSans-Bold-32" d="M 1844 884 
L 3897 884 
L 3897 0 
L 506 0 
L 506 884 
L 2209 2388 
Q 2438 2594 2547 2791 
Q 2656 2988 2656 3200 
Q 2656 3528 2436 3728 
Q 2216 3928 1850 3928 
Q 1569 3928 1234 3808 
Q 900 3688 519 3450 
L 519 4475 
Q 925 4609 1322 4679 
Q 1719 4750 2100 4750 
Q 2938 4750 3402 4381 
Q 3866 4013 3866 3353 
Q 3866 2972 3669 2642 
Q 3472 2313 2841 1759 
L 1844 884 
z
" transform="scale(0.015625)"/>
     </defs>
     <use xlink:href="#DejaVuSans-Bold-32"/>
    </g>
   </g>
   <g id="text_4">
    <!-- 3 -->
    <g transform="translate(364.042416 160.521185) scale(0.1 -0.1)">
     <defs>
      <path id="DejaVuSans-Bold-33" d="M 2981 2516 
Q 3453 2394 3698 2092 
Q 3944 1791 3944 1325 
Q 3944 631 3412 270 
Q 2881 -91 1863 -91 
Q 1503 -91 1142 -33 
Q 781 25 428 141 
L 428 1069 
Q 766 900 1098 814 
Q 1431 728 1753 728 
Q 2231 728 2486 893 
Q 2741 1059 2741 1369 
Q 2741 1688 2480 1852 
Q 2219 2016 1709 2016 
L 1228 2016 
L 1228 2791 
L 1734 2791 
Q 2188 2791 2409 2933 
Q 2631 3075 2631 3366 
Q 2631 3634 2415 3781 
Q 2200 3928 1806 3928 
Q 1516 3928 1219 3862 
Q 922 3797 628 3669 
L 628 4550 
Q 984 4650 1334 4700 
Q 1684 4750 2022 4750 
Q 2931 4750 3382 4451 
Q 3834 4153 3834 3553 
Q 3834 3144 3618 2883 
Q 3403 2622 2981 2516 
z
" transform="scale(0.015625)"/>
     </defs>
     <use xlink:href="#DejaVuSans-Bold-33"/>
    </g>
   </g>
   <g id="text_5">
    <!-- 4 -->
    <g transform="translate(284.194041 184.222665) scale(0.1 -0.1)">
     <defs>
      <path id="DejaVuSans-Bold-34" d="M 2356 3675 
L 1038 1722 
L 2356 1722 
L 2356 3675 
z
M 2156 4666 
L 3494 4666 
L 3494 1722 
L 4159 1722 
L 4159 850 
L 3494 850 
L 3494 0 
L 2356 0 
L 2356 850 
L 288 850 
L 288 1881 
L 2156 4666 
z
" transform="scale(0.015625)"/>
     </defs>
     <use xlink:href="#DejaVuSans-Bold-34"/>
    </g>
   </g>
   <g id="text_6">
    <!-- 5 -->
    <g transform="translate(96.08804 195.204514) scale(0.1 -0.1)">
     <defs>
      <path id="DejaVuSans-Bold-35" d="M 678 4666 
L 3669 4666 
L 3669 3781 
L 1638 3781 
L 1638 3059 
Q 1775 3097 1914 3117 
Q 2053 3138 2203 3138 
Q 3056 3138 3531 2711 
Q 4006 2284 4006 1522 
Q 4006 766 3489 337 
Q 2972 -91 2053 -91 
Q 1656 -91 1267 -14 
Q 878 63 494 219 
L 494 1166 
Q 875 947 1217 837 
Q 1559 728 1863 728 
Q 2300 728 2551 942 
Q 2803 1156 2803 1522 
Q 2803 1891 2551 2103 
Q 2300 2316 1863 2316 
Q 1603 2316 1309 2248 
Q 1016 2181 678 2041 
L 678 4666 
z
" transform="scale(0.015625)"/>
     </defs>
     <use xlink:href="#DejaVuSans-Bold-35"/>
    </g>
   </g>
   <g id="text_7">
    <!-- 6 -->
    <g transform="translate(162.200477 144.056578) scale(0.1 -0.1)">
     <defs>
      <path id="DejaVuSans-Bold-36" d="M 2316 2303 
Q 2000 2303 1842 2098 
Q 1684 1894 1684 1484 
Q 1684 1075 1842 870 
Q 2000 666 2316 666 
Q 2634 666 2792 870 
Q 2950 1075 2950 1484 
Q 2950 1894 2792 2098 
Q 2634 2303 2316 2303 
z
M 3803 4544 
L 3803 3681 
Q 3506 3822 3243 3889 
Q 2981 3956 2731 3956 
Q 2194 3956 1894 3657 
Q 1594 3359 1544 2772 
Q 1750 2925 1990 3001 
Q 2231 3078 2516 3078 
Q 3231 3078 3670 2659 
Q 4109 2241 4109 1563 
Q 4109 813 3618 361 
Q 3128 -91 2303 -91 
Q 1394 -91 895 523 
Q 397 1138 397 2266 
Q 397 3422 980 4083 
Q 1563 4744 2578 4744 
Q 2900 4744 3203 4694 
Q 3506 4644 3803 4544 
z
" transform="scale(0.015625)"/>
     </defs>
     <use xlink:href="#DejaVuSans-Bold-36"/>
    </g>
   </g>
   <g id="text_8">
    <!-- PAGA Graph -->
    <g transform="translate(168.180938 16.318125) scale(0.12 -0.12)">
     <defs>
      <path id="DejaVuSans-50" d="M 1259 4147 
L 1259 2394 
L 2053 2394 
Q 2494 2394 2734 2622 
Q 2975 2850 2975 3272 
Q 2975 3691 2734 3919 
Q 2494 4147 2053 4147 
L 1259 4147 
z
M 628 4666 
L 2053 4666 
Q 2838 4666 3239 4311 
Q 3641 3956 3641 3272 
Q 3641 2581 3239 2228 
Q 2838 1875 2053 1875 
L 1259 1875 
L 1259 0 
L 628 0 
L 628 4666 
z
" transform="scale(0.015625)"/>
      <path id="DejaVuSans-41" d="M 2188 4044 
L 1331 1722 
L 3047 1722 
L 2188 4044 
z
M 1831 4666 
L 2547 4666 
L 4325 0 
L 3669 0 
L 3244 1197 
L 1141 1197 
L 716 0 
L 50 0 
L 1831 4666 
z
" transform="scale(0.015625)"/>
      <path id="DejaVuSans-47" d="M 3809 666 
L 3809 1919 
L 2778 1919 
L 2778 2438 
L 4434 2438 
L 4434 434 
Q 4069 175 3628 42 
Q 3188 -91 2688 -91 
Q 1594 -91 976 548 
Q 359 1188 359 2328 
Q 359 3472 976 4111 
Q 1594 4750 2688 4750 
Q 3144 4750 3555 4637 
Q 3966 4525 4313 4306 
L 4313 3634 
Q 3963 3931 3569 4081 
Q 3175 4231 2741 4231 
Q 1884 4231 1454 3753 
Q 1025 3275 1025 2328 
Q 1025 1384 1454 906 
Q 1884 428 2741 428 
Q 3075 428 3337 486 
Q 3600 544 3809 666 
z
" transform="scale(0.015625)"/>
      <path id="DejaVuSans-20" transform="scale(0.015625)"/>
      <path id="DejaVuSans-72" d="M 2631 2963 
Q 2534 3019 2420 3045 
Q 2306 3072 2169 3072 
Q 1681 3072 1420 2755 
Q 1159 2438 1159 1844 
L 1159 0 
L 581 0 
L 581 3500 
L 1159 3500 
L 1159 2956 
Q 1341 3275 1631 3429 
Q 1922 3584 2338 3584 
Q 2397 3584 2469 3576 
Q 2541 3569 2628 3553 
L 2631 2963 
z
" transform="scale(0.015625)"/>
      <path id="DejaVuSans-61" d="M 2194 1759 
Q 1497 1759 1228 1600 
Q 959 1441 959 1056 
Q 959 750 1161 570 
Q 1363 391 1709 391 
Q 2188 391 2477 730 
Q 2766 1069 2766 1631 
L 2766 1759 
L 2194 1759 
z
M 3341 1997 
L 3341 0 
L 2766 0 
L 2766 531 
Q 2569 213 2275 61 
Q 1981 -91 1556 -91 
Q 1019 -91 701 211 
Q 384 513 384 1019 
Q 384 1609 779 1909 
Q 1175 2209 1959 2209 
L 2766 2209 
L 2766 2266 
Q 2766 2663 2505 2880 
Q 2244 3097 1772 3097 
Q 1472 3097 1187 3025 
Q 903 2953 641 2809 
L 641 3341 
Q 956 3463 1253 3523 
Q 1550 3584 1831 3584 
Q 2591 3584 2966 3190 
Q 3341 2797 3341 1997 
z
" transform="scale(0.015625)"/>
      <path id="DejaVuSans-70" d="M 1159 525 
L 1159 -1331 
L 581 -1331 
L 581 3500 
L 1159 3500 
L 1159 2969 
Q 1341 3281 1617 3432 
Q 1894 3584 2278 3584 
Q 2916 3584 3314 3078 
Q 3713 2572 3713 1747 
Q 3713 922 3314 415 
Q 2916 -91 2278 -91 
Q 1894 -91 1617 61 
Q 1341 213 1159 525 
z
M 3116 1747 
Q 3116 2381 2855 2742 
Q 2594 3103 2138 3103 
Q 1681 3103 1420 2742 
Q 1159 2381 1159 1747 
Q 1159 1113 1420 752 
Q 1681 391 2138 391 
Q 2594 391 2855 752 
Q 3116 1113 3116 1747 
z
" transform="scale(0.015625)"/>
      <path id="DejaVuSans-68" d="M 3513 2113 
L 3513 0 
L 2938 0 
L 2938 2094 
Q 2938 2591 2744 2837 
Q 2550 3084 2163 3084 
Q 1697 3084 1428 2787 
Q 1159 2491 1159 1978 
L 1159 0 
L 581 0 
L 581 4863 
L 1159 4863 
L 1159 2956 
Q 1366 3272 1645 3428 
Q 1925 3584 2291 3584 
Q 2894 3584 3203 3211 
Q 3513 2838 3513 2113 
z
" transform="scale(0.015625)"/>
     </defs>
     <use xlink:href="#DejaVuSans-50"/>
     <use xlink:href="#DejaVuSans-41" x="53.927734"/>
     <use xlink:href="#DejaVuSans-47" x="120.585938"/>
     <use xlink:href="#DejaVuSans-41" x="198.076172"/>
     <use xlink:href="#DejaVuSans-20" x="266.484375"/>
     <use xlink:href="#DejaVuSans-47" x="298.271484"/>
     <use xlink:href="#DejaVuSans-72" x="375.761719"/>
     <use xlink:href="#DejaVuSans-61" x="416.875"/>
     <use xlink:href="#DejaVuSans-70" x="478.154297"/>
     <use xlink:href="#DejaVuSans-68" x="541.630859"/>
    </g>
   </g>
  </g>
 </g>
 <defs>
  <clipPath id="pe8af1d0f0b">
   <rect x="7.2" y="22.318125" width="394.56" height="276.48"/>
  </clipPath>
 </defs>
</svg>
