<?xml version="1.0" encoding="utf-8" standalone="no"?>
<!DOCTYPE svg PUBLIC "-//W3C//DTD SVG 1.1//EN"
  "http://www.w3.org/Graphics/SVG/1.1/DTD/svg11.dtd">
<svg xmlns:xlink="http://www.w3.org/1999/xlink" width="408.96pt" height="305.998125pt" viewBox="0 0 408.96 305.998125" xmlns="http://www.w3.org/2000/svg" version="1.1">
 <metadata>
  <rdf:RDF xmlns:dc="http://purl.org/dc/elements/1.1/" xmlns:cc="http://creativecommons.org/ns#" xmlns:rdf="http://www.w3.org/1999/02/22-rdf-syntax-ns#">
   <cc:Work>
    <dc:type rdf:resource="http://purl.org/dc/dcmitype/StillImage"/>
    <dc:date>2026-03-30T21:38:28.789186</dc:date>
    <dc:format>image/svg+xml</dc:format>
    <dc:creator>
     <cc:Agent>
      <dc:title>Matplotlib v3.7.0, https://matplotlib.org/</dc:title>
     </cc:Agent>
    </dc:creator>
   </cc:Work>
  </rdf:RDF>
 </metadata>
 <defs>
  <style type="text/css">*{stroke-linejoin: round; stroke-linecap: butt}</style>
 </defs>
 <g id="figure_1">
  <g id="patch_1">
   <path d="M 0 305.998125 
L 408.96 305.998125 
L 408.96 0 
L 0 0 
z
" style="fill: #ffffff"/>
  </g>
  <g id="axes_1">
   <g id="LineCollection_1">
    <path d="M 57.389324 112.101728 
L 249.755126 222.410865 
" clip-path="url(#pe7223ac1dd)" style="fill: none; stroke: #000000; stroke-width: 0.457724"/>
    <path d="M 57.389324 112.101728 
L 172.32338 235.554406 
" clip-path="url(#pe7223ac1dd)" style="fill: none; stroke: #000000; stroke-width: 4.455178"/>
    <path d="M 57.389324 112.101728 
L 127.08629 148.499085 
" clip-path="url(#pe7223ac1dd)" style="fill: none; stroke: #000000; stroke-width: 0.217817"/>
    <path d="M 57.389324 112.101728 
L 229.129719 46.310191 
" clip-path="url(#pe7223ac1dd)" style="fill: none; stroke: #000000; stroke-width: 1.316501"/>
    <path d="M 57.389324 112.101728 
L 41.438678 274.806059 
" clip-path="url(#pe7223ac1dd)" style="fill: none; stroke: #000000; stroke-width: 4.251268"/>
    <path d="M 367.521322 239.306358 
L 249.755126 222.410865 
" clip-path="url(#pe7223ac1dd)" style="fill: none; stroke: #000000; stroke-width: 4.297336"/>
    <path d="M 367.521322 239.306358 
L 172.32338 235.554406 
" clip-path="url(#pe7223ac1dd)" style="fill: none; stroke: #000000; stroke-width: 0.553782"/>
    <path d="M 367.521322 239.306358 
L 127.08629 148.499085 
" clip-path="url(#pe7223ac1dd)" style="fill: none; stroke: #000000; stroke-width: 0.137102"/>
    <path d="M 367.521322 239.306358 
L 229.129719 46.310191 
" clip-path="url(#pe7223ac1dd)" style="fill: none; stroke: #000000; stroke-width: 0.809732"/>
    <path d="M 249.755126 222.410865 
L 172.32338 235.554406 
" clip-path="url(#pe7223ac1dd)" style="fill: none; stroke: #000000; stroke-width: 7.5"/>
    <path d="M 249.755126 222.410865 
L 127.08629 148.499085 
" clip-path="url(#pe7223ac1dd)" style="fill: none; stroke: #000000; stroke-width: 3.147649"/>
    <path d="M 249.755126 222.410865 
L 229.129719 46.310191 
" clip-path="url(#pe7223ac1dd)" style="fill: none; stroke: #000000; stroke-width: 3.624658"/>
    <path d="M 249.755126 222.410865 
L 41.438678 274.806059 
" clip-path="url(#pe7223ac1dd)" style="fill: none; stroke: #000000; stroke-width: 0.659607"/>
    <path d="M 172.32338 235.554406 
L 127.08629 148.499085 
" clip-path="url(#pe7223ac1dd)" style="fill: none; stroke: #000000; stroke-width: 1.841991"/>
    <path d="M 172.32338 235.554406 
L 229.129719 46.310191 
" clip-path="url(#pe7223ac1dd)" style="fill: none; stroke: #000000; stroke-width: 3.232256"/>
    <path d="M 172.32338 235.554406 
L 41.438678 274.806059 
" clip-path="url(#pe7223ac1dd)" style="fill: none; stroke: #000000; stroke-width: 1.306871"/>
    <path d="M 127.08629 148.499085 
L 229.129719 46.310191 
" clip-path="url(#pe7223ac1dd)" style="fill: none; stroke: #000000; stroke-width: 1.023329"/>
    <path d="M 127.08629 148.499085 
L 41.438678 274.806059 
" clip-path="url(#pe7223ac1dd)" style="fill: none; stroke: #000000; stroke-width: 4.405331"/>
    <path d="M 229.129719 46.310191 
L 41.438678 274.806059 
" clip-path="url(#pe7223ac1dd)" style="fill: none; stroke: #000000; stroke-width: 0.185153"/>
   </g>
   <g id="PathCollection_1">
    <path d="M 57.389324 118.484757 
C 59.082123 118.484757 60.705818 117.812201 61.902807 116.615211 
C 63.099797 115.418222 63.772353 113.794527 63.772353 112.101728 
C 63.772353 110.408929 63.099797 108.785235 61.902807 107.588245 
C 60.705818 106.391256 59.082123 105.718699 57.389324 105.718699 
C 55.696525 105.718699 54.072831 106.391256 52.875841 107.588245 
C 51.678852 108.785235 51.006295 110.408929 51.006295 112.101728 
C 51.006295 113.794527 51.678852 115.418222 52.875841 116.615211 
C 54.072831 117.812201 55.696525 118.484757 57.389324 118.484757 
z
" clip-path="url(#pe7223ac1dd)" style="fill: #1f77b4; stroke: #1f77b4"/>
    <path d="M 367.521322 246.77411 
C 369.501793 246.77411 371.401416 245.987261 372.80182 244.586856 
C 374.202225 243.186452 374.989074 241.286829 374.989074 239.306358 
C 374.989074 237.325887 374.202225 235.426265 372.80182 234.02586 
C 371.401416 232.625456 369.501793 231.838606 367.521322 231.838606 
C 365.540851 231.838606 363.641229 232.625456 362.240824 234.02586 
C 360.84042 235.426265 360.05357 237.325887 360.05357 239.306358 
C 360.05357 241.286829 360.84042 243.186452 362.240824 244.586856 
C 363.641229 245.987261 365.540851 246.77411 367.521322 246.77411 
z
" clip-path="url(#pe7223ac1dd)" style="fill: #ff7f0e; stroke: #ff7f0e"/>
    <path d="M 249.755126 227.638214 
C 251.141435 227.638214 252.471151 227.087427 253.45142 226.107159 
C 254.431688 225.12689 254.982475 223.797174 254.982475 222.410865 
C 254.982475 221.024556 254.431688 219.69484 253.45142 218.714571 
C 252.471151 217.734302 251.141435 217.183516 249.755126 217.183516 
C 248.368817 217.183516 247.039101 217.734302 246.058832 218.714571 
C 245.078564 219.69484 244.527777 221.024556 244.527777 222.410865 
C 244.527777 223.797174 245.078564 225.12689 246.058832 226.107159 
C 247.039101 227.087427 248.368817 227.638214 249.755126 227.638214 
z
" clip-path="url(#pe7223ac1dd)" style="fill: #2ca02c; stroke: #2ca02c"/>
    <path d="M 172.32338 240.503635 
C 173.635931 240.503635 174.8949 239.982153 175.823014 239.054039 
C 176.751127 238.125926 177.272609 236.866957 177.272609 235.554406 
C 177.272609 234.241855 176.751127 232.982886 175.823014 232.054772 
C 174.8949 231.126658 173.635931 230.605176 172.32338 230.605176 
C 171.010829 230.605176 169.75186 231.126658 168.823746 232.054772 
C 167.895632 232.982886 167.37415 234.241855 167.37415 235.554406 
C 167.37415 236.866957 167.895632 238.125926 168.823746 239.054039 
C 169.75186 239.982153 171.010829 240.503635 172.32338 240.503635 
z
" clip-path="url(#pe7223ac1dd)" style="fill: #d62728; stroke: #d62728"/>
    <path d="M 127.08629 155.881337 
C 129.044086 155.881337 130.921959 155.103497 132.30633 153.719126 
C 133.690702 152.334754 134.468542 150.456881 134.468542 148.499085 
C 134.468542 146.541288 133.690702 144.663415 132.30633 143.279044 
C 130.921959 141.894673 129.044086 141.116832 127.08629 141.116832 
C 125.128493 141.116832 123.25062 141.894673 121.866249 143.279044 
C 120.481878 144.663415 119.704037 146.541288 119.704037 148.499085 
C 119.704037 150.456881 120.481878 152.334754 121.866249 153.719126 
C 123.25062 155.103497 125.128493 155.881337 127.08629 155.881337 
z
" clip-path="url(#pe7223ac1dd)" style="fill: #9467bd; stroke: #9467bd"/>
    <path d="M 229.129719 51.453875 
C 230.49384 51.453875 231.802274 50.911904 232.766853 49.947325 
C 233.731433 48.982746 234.273404 47.674312 234.273404 46.310191 
C 234.273404 44.94607 233.731433 43.637636 232.766853 42.673057 
C 231.802274 41.708478 230.49384 41.166507 229.129719 41.166507 
C 227.765598 41.166507 226.457165 41.708478 225.492585 42.673057 
C 224.528006 43.637636 223.986035 44.94607 223.986035 46.310191 
C 223.986035 47.674312 224.528006 48.982746 225.492585 49.947325 
C 226.457165 50.911904 227.765598 51.453875 229.129719 51.453875 
z
" clip-path="url(#pe7223ac1dd)" style="fill: #8c564b; stroke: #8c564b"/>
    <path d="M 41.438678 281.094061 
C 43.106275 281.094061 44.705797 280.431517 45.884967 279.252348 
C 47.064136 278.073178 47.72668 276.473657 47.72668 274.806059 
C 47.72668 273.138461 47.064136 271.53894 45.884967 270.35977 
C 44.705797 269.1806 43.106275 268.518057 41.438678 268.518057 
C 39.77108 268.518057 38.171558 269.1806 36.992389 270.35977 
C 35.813219 271.53894 35.150676 273.138461 35.150676 274.806059 
C 35.150676 276.473657 35.813219 278.073178 36.992389 279.252348 
C 38.171558 280.431517 39.77108 281.094061 41.438678 281.094061 
z
" clip-path="url(#pe7223ac1dd)" style="fill: #e377c2; stroke: #e377c2"/>
   </g>
   <g id="matplotlib.axis_1"/>
   <g id="matplotlib.axis_2"/>
   <g id="text_1">
    <!-- 0 -->
    <g transform="translate(53.910418 114.861103) scale(0.1 -0.1)">
     <defs>
      <path id="DejaVuSans-Bold-30" d="M 2944 2338 
Q 2944 3213 2780 3570 
Q 2616 3928 2228 3928 
Q 1841 3928 1675 3570 
Q 1509 3213 1509 2338 
Q 1509 1453 1675 1090 
Q 1841 728 2228 728 
Q 2613 728 2778 1090 
Q 2944 1453 2944 2338 
z
M 4147 2328 
Q 4147 1169 3647 539 
Q 3147 -91 2228 -91 
Q 1306 -91 806 539 
Q 306 1169 306 2328 
Q 306 3491 806 4120 
Q 1306 4750 2228 4750 
Q 3147 4750 3647 4120 
Q 4147 3491 4147 2328 
z
" transform="scale(0.015625)"/>
     </defs>
     <use xlink:href="#DejaVuSans-Bold-30"/>
    </g>
   </g>
   <g id="text_2">
    <!-- 1 -->
    <g transform="translate(364.042416 242.065733) scale(0.1 -0.1)">
     <defs>
      <path id="DejaVuSans-Bold-31" d="M 750 831 
L 1813 831 
L 1813 3847 
L 722 3622 
L 722 4441 
L 1806 4666 
L 2950 4666 
L 2950 831 
L 4013 831 
L 4013 0 
L 750 0 
L 750 831 
z
" transform="scale(0.015625)"/>
     </defs>
     <use xlink:href="#DejaVuSans-Bold-31"/>
    </g>
   </g>
   <g id="text_3">
    <!-- 2 -->
    <g transform="translate(246.27622 225.17024) scale(0.1 -0.1)">
     <defs>
      <path id="DejaVuSans-Bold-32" d="M 1844 884 
L 3897 884 
L 3897 0 
L 506 0 
L 506 884 
L 2209 2388 
Q 2438 2594 2547 2791 
Q 2656 2988 2656 3200 
Q 2656 3528 2436 3728 
Q 2216 3928 1850 3928 
Q 1569 3928 1234 3808 
Q 900 3688 519 3450 
L 519 4475 
Q 925 4609 1322 4679 
Q 1719 4750 2100 4750 
Q 2938 4750 3402 4381 
Q 3866 4013 3866 3353 
Q 3866 2972 3669 2642 
Q 3472 2313 2841 1759 
L 1844 884 
z
" transform="scale(0.015625)"/>
     </defs>
     <use xlink:href="#DejaVuSans-Bold-32"/>
    </g>
   </g>
   <g id="text_4">
    <!-- 3 -->
    <g transform="translate(168.844474 238.313781) scale(0.1 -0.1)">
     <defs>
      <path id="DejaVuSans-Bold-33" d="M 2981 2516 
Q 3453 2394 3698 2092 
Q 3944 1791 3944 1325 
Q 3944 631 3412 270 
Q 2881 -91 1863 -91 
Q 1503 -91 1142 -33 
Q 781 25 428 141 
L 428 1069 
Q 766 900 1098 814 
Q 1431 728 1753 728 
Q 2231 728 2486 893 
Q 2741 1059 2741 1369 
Q 2741 1688 2480 1852 
Q 2219 2016 1709 2016 
L 1228 2016 
L 1228 2791 
L 1734 2791 
Q 2188 2791 2409 2933 
Q 2631 3075 2631 3366 
Q 2631 3634 2415 3781 
Q 2200 3928 1806 3928 
Q 1516 3928 1219 3862 
Q 922 3797 628 3669 
L 628 4550 
Q 984 4650 1334 4700 
Q 1684 4750 2022 4750 
Q 2931 4750 3382 4451 
Q 3834 4153 3834 3553 
Q 3834 3144 3618 2883 
Q 3403 2622 2981 2516 
z
" transform="scale(0.015625)"/>
     </defs>
     <use xlink:href="#DejaVuSans-Bold-33"/>
    </g>
   </g>
   <g id="text_5">
    <!-- 4 -->
    <g transform="translate(123.607383 151.25846) scale(0.1 -0.1)">
     <defs>
      <path id="DejaVuSans-Bold-34" d="M 2356 3675 
L 1038 1722 
L 2356 1722 
L 2356 3675 
z
M 2156 4666 
L 3494 4666 
L 3494 1722 
L 4159 1722 
L 4159 850 
L 3494 850 
L 3494 0 
L 2356 0 
L 2356 850 
L 288 850 
L 288 1881 
L 2156 4666 
z
" transform="scale(0.015625)"/>
     </defs>
     <use xlink:href="#DejaVuSans-Bold-34"/>
    </g>
   </g>
   <g id="text_6">
    <!-- 5 -->
    <g transform="translate(225.650813 49.069566) scale(0.1 -0.1)">
     <defs>
      <path id="DejaVuSans-Bold-35" d="M 678 4666 
L 3669 4666 
L 3669 3781 
L 1638 3781 
L 1638 3059 
Q 1775 3097 1914 3117 
Q 2053 3138 2203 3138 
Q 3056 3138 3531 2711 
Q 4006 2284 4006 1522 
Q 4006 766 3489 337 
Q 2972 -91 2053 -91 
Q 1656 -91 1267 -14 
Q 878 63 494 219 
L 494 1166 
Q 875 947 1217 837 
Q 1559 728 1863 728 
Q 2300 728 2551 942 
Q 2803 1156 2803 1522 
Q 2803 1891 2551 2103 
Q 2300 2316 1863 2316 
Q 1603 2316 1309 2248 
Q 1016 2181 678 2041 
L 678 4666 
z
" transform="scale(0.015625)"/>
     </defs>
     <use xlink:href="#DejaVuSans-Bold-35"/>
    </g>
   </g>
   <g id="text_7">
    <!-- 6 -->
    <g transform="translate(37.959771 277.565434) scale(0.1 -0.1)">
     <defs>
      <path id="DejaVuSans-Bold-36" d="M 2316 2303 
Q 2000 2303 1842 2098 
Q 1684 1894 1684 1484 
Q 1684 1075 1842 870 
Q 2000 666 2316 666 
Q 2634 666 2792 870 
Q 2950 1075 2950 1484 
Q 2950 1894 2792 2098 
Q 2634 2303 2316 2303 
z
M 3803 4544 
L 3803 3681 
Q 3506 3822 3243 3889 
Q 2981 3956 2731 3956 
Q 2194 3956 1894 3657 
Q 1594 3359 1544 2772 
Q 1750 2925 1990 3001 
Q 2231 3078 2516 3078 
Q 3231 3078 3670 2659 
Q 4109 2241 4109 1563 
Q 4109 813 3618 361 
Q 3128 -91 2303 -91 
Q 1394 -91 895 523 
Q 397 1138 397 2266 
Q 397 3422 980 4083 
Q 1563 4744 2578 4744 
Q 2900 4744 3203 4694 
Q 3506 4644 3803 4544 
z
" transform="scale(0.015625)"/>
     </defs>
     <use xlink:href="#DejaVuSans-Bold-36"/>
    </g>
   </g>
   <g id="text_8">
    <!-- PAGA Graph -->
    <g transform="translate(168.180938 16.318125) scale(0.12 -0.12)">
     <defs>
      <path id="DejaVuSans-50" d="M 1259 4147 
L 1259 2394 
L 2053 2394 
Q 2494 2394 2734 2622 
Q 2975 2850 2975 3272 
Q 2975 3691 2734 3919 
Q 2494 4147 2053 4147 
L 1259 4147 
z
M 628 4666 
L 2053 4666 
Q 2838 4666 3239 4311 
Q 3641 3956 3641 3272 
Q 3641 2581 3239 2228 
Q 2838 1875 2053 1875 
L 1259 1875 
L 1259 0 
L 628 0 
L 628 4666 
z
" transform="scale(0.015625)"/>
      <path id="DejaVuSans-41" d="M 2188 4044 
L 1331 1722 
L 3047 1722 
L 2188 4044 
z
M 1831 4666 
L 2547 4666 
L 4325 0 
L 3669 0 
L 3244 1197 
L 1141 1197 
L 716 0 
L 50 0 
L 1831 4666 
z
" transform="scale(0.015625)"/>
      <path id="DejaVuSans-47" d="M 3809 666 
L 3809 1919 
L 2778 1919 
L 2778 2438 
L 4434 2438 
L 4434 434 
Q 4069 175 3628 42 
Q 3188 -91 2688 -91 
Q 1594 -91 976 548 
Q 359 1188 359 2328 
Q 359 3472 976 4111 
Q 1594 4750 2688 4750 
Q 3144 4750 3555 4637 
Q 3966 4525 4313 4306 
L 4313 3634 
Q 3963 3931 3569 4081 
Q 3175 4231 2741 4231 
Q 1884 4231 1454 3753 
Q 1025 3275 1025 2328 
Q 1025 1384 1454 906 
Q 1884 428 2741 428 
Q 3075 428 3337 486 
Q 3600 544 3809 666 
z
" transform="scale(0.015625)"/>
      <path id="DejaVuSans-20" transform="scale(0.015625)"/>
      <path id="DejaVuSans-72" d="M 2631 2963 
Q 2534 3019 2420 3045 
Q 2306 3072 2169 3072 
Q 1681 3072 1420 2755 
Q 1159 2438 1159 1844 
L 1159 0 
L 581 0 
L 581 3500 
L 1159 3500 
L 1159 2956 
Q 1341 3275 1631 3429 
Q 1922 3584 2338 3584 
Q 2397 3584 2469 3576 
Q 2541 3569 2628 3553 
L 2631 2963 
z
" transform="scale(0.015625)"/>
      <path id="DejaVuSans-61" d="M 2194 1759 
Q 1497 1759 1228 1600 
Q 959 1441 959 1056 
Q 959 750 1161 570 
Q 1363 391 1709 391 
Q 2188 391 2477 730 
Q 2766 1069 2766 1631 
L 2766 1759 
L 2194 1759 
z
M 3341 1997 
L 3341 0 
L 2766 0 
L 2766 531 
Q 2569 213 2275 61 
Q 1981 -91 1556 -91 
Q 1019 -91 701 211 
Q 384 513 384 1019 
Q 384 1609 779 1909 
Q 1175 2209 1959 2209 
L 2766 2209 
L 2766 2266 
Q 2766 2663 2505 2880 
Q 2244 3097 1772 3097 
Q 1472 3097 1187 3025 
Q 903 2953 641 2809 
L 641 3341 
Q 956 3463 1253 3523 
Q 1550 3584 1831 3584 
Q 2591 3584 2966 3190 
Q 3341 2797 3341 1997 
z
" transform="scale(0.015625)"/>
      <path id="DejaVuSans-70" d="M 1159 525 
L 1159 -1331 
L 581 -1331 
L 581 3500 
L 1159 3500 
L 1159 2969 
Q 1341 3281 1617 3432 
Q 1894 3584 2278 3584 
Q 2916 3584 3314 3078 
Q 3713 2572 3713 1747 
Q 3713 922 3314 415 
Q 2916 -91 2278 -91 
Q 1894 -91 1617 61 
Q 1341 213 1159 525 
z
M 3116 1747 
Q 3116 2381 2855 2742 
Q 2594 3103 2138 3103 
Q 1681 3103 1420 2742 
Q 1159 2381 1159 1747 
Q 1159 1113 1420 752 
Q 1681 391 2138 391 
Q 2594 391 2855 752 
Q 3116 1113 3116 1747 
z
" transform="scale(0.015625)"/>
      <path id="DejaVuSans-68" d="M 3513 2113 
L 3513 0 
L 2938 0 
L 2938 2094 
Q 2938 2591 2744 2837 
Q 2550 3084 2163 3084 
Q 1697 3084 1428 2787 
Q 1159 2491 1159 1978 
L 1159 0 
L 581 0 
L 581 4863 
L 1159 4863 
L 1159 2956 
Q 1366 3272 1645 3428 
Q 1925 3584 2291 3584 
Q 2894 3584 3203 3211 
Q 3513 2838 3513 2113 
z
" transform="scale(0.015625)"/>
     </defs>
     <use xlink:href="#DejaVuSans-50"/>
     <use xlink:href="#DejaVuSans-41" x="53.927734"/>
     <use xlink:href="#DejaVuSans-47" x="120.585938"/>
     <use xlink:href="#DejaVuSans-41" x="198.076172"/>
     <use xlink:href="#DejaVuSans-20" x="266.484375"/>
     <use xlink:href="#DejaVuSans-47" x="298.271484"/>
     <use xlink:href="#DejaVuSans-72" x="375.761719"/>
     <use xlink:href="#DejaVuSans-61" x="416.875"/>
     <use xlink:href="#DejaVuSans-70" x="478.154297"/>
     <use xlink:href="#DejaVuSans-68" x="541.630859"/>
    </g>
   </g>
  </g>
 </g>
 <defs>
  <clipPath id="pe7223ac1dd">
   <rect x="7.2" y="22.318125" width="394.56" height="276.48"/>
  </clipPath>
 </defs>
</svg>
